<svg width="178" height="45" viewBox="0 0 178 45" fill="none" xmlns="http://www.w3.org/2000/svg">
<path d="M144.433 32.8758L144.725 32.5193C142.132 32.2939 141.86 30.6594 141.914 28.6584C142.004 25.4096 141.934 22.1541 141.947 18.9053C141.985 18.4227 142.054 17.943 142.152 17.4692C142.728 18.125 143.101 18.5353 143.461 18.9591C147.207 23.4186 150.965 27.8748 154.734 32.3276C155.154 32.7622 155.604 33.1679 156.079 33.5417L156.392 33.3264V30.9958C156.392 26.062 156.392 21.1283 156.392 16.1979C156.392 15.1587 156.597 14.3213 157.683 13.9143C159.974 13.05 161.605 14.1296 161.615 16.5712C161.615 20.6642 161.635 24.7571 161.615 28.8501C161.615 29.7312 161.659 30.7502 161.245 31.4464C160.868 32.082 159.9 32.3612 159.12 32.8388H176.51C176.887 30.878 177.24 29.0418 177.59 27.2089L177.119 27.0373C176.147 28.9981 174.977 30.8141 172.868 31.6078C170.87 32.3578 168.802 32.8354 166.542 31.7895C165.93 28.9913 166.256 26.1865 166.313 23.3648C167.86 23.0823 169.185 23.3244 170.036 24.3569C170.8 25.2851 171.186 26.5228 171.751 27.6494V18.2494C170.386 21.9085 169.132 22.8502 166.404 22.1339C165.923 19.3324 166.118 15.4479 166.919 14.0623C168.069 14.0623 169.337 14.0388 170.618 14.0623C172.007 14.096 173.362 14.4255 174.233 15.5455C174.963 16.4905 175.431 17.6407 176.14 18.9288V13.3594H152.76C155.064 13.9043 155.383 15.5152 155.282 17.4894C155.188 19.2786 155.262 21.0778 155.262 22.8704V25.4667L154.842 25.6013L144.611 13.346H138.557L138.403 13.6218L140.777 15.4446C140.777 20.6944 140.777 25.46 140.777 30.2256C140.777 31.3388 140.252 32.0081 139.213 32.3242C138.877 32.4217 138.561 32.5327 138.238 32.6403L138.308 32.8724L144.433 32.8758ZM107.714 32.785H117.164C115.385 32.1123 114.864 31.8735 114.81 30.8511C114.699 28.6348 114.776 26.4084 114.776 23.8827C116.102 23.8827 117.282 24.0105 118.419 23.8491C119.741 23.6977 121.034 23.3579 122.259 22.8401C124.237 21.9254 125.044 20.2068 124.913 18.0208C124.785 15.8952 123.585 14.6038 121.691 13.9547C120.587 13.5625 119.431 13.3358 118.261 13.2821C115.069 13.1846 111.871 13.2316 108.676 13.235C108.237 13.2804 107.801 13.3534 107.371 13.4536C109.725 14.2036 110.041 14.5937 110.061 16.9782C110.098 20.9601 110.061 24.9421 110.078 28.9274C110.068 30.6931 109.88 32.3343 107.714 32.785ZM37.2527 22.0229C36.8155 14.4491 29.5511 9.45819 24.1734 10.4638V22.0229H37.2527ZM37.1686 23.7919H24.0523V35.2266C30.634 35.7378 37.6899 29.4723 37.1787 23.8087L37.1686 23.7919ZM78.394 32.6202L78.4344 32.7984H86.3916C85.7391 31.7491 84.9219 30.7536 84.4477 29.6169C82.339 24.5721 80.3345 19.4635 78.2729 14.3885C78.0442 13.8269 77.6978 13.3157 77.2236 12.4514C76.7763 13.4805 76.4905 14.0691 76.2584 14.6812C74.449 19.3761 72.6475 24.0733 70.8538 28.7727C70.2787 30.276 69.781 31.8164 67.9313 32.7648H73.4098L71.0556 31.6415L72.3807 27.2694H78.9018C80.1664 29.6841 80.3379 30.4038 80.0117 32.0518L78.394 32.6202ZM66.8954 29.1158L66.5255 28.8803C66.172 29.2797 65.7762 29.6394 65.345 29.9532C63.9627 30.7536 62.6141 31.7222 61.1142 32.1829C59.9426 32.516 58.6887 32.3957 57.6018 31.8461C56.5149 31.2964 55.6749 30.3576 55.2488 29.2166C53.6827 25.0942 53.7175 20.5347 55.3464 16.4367C56.5706 13.309 59.8732 12.448 62.5132 14.5466C63.7441 15.5253 64.5984 16.9782 65.6006 18.2461C65.9272 18.7206 66.2281 19.2123 66.5019 19.7191V12.9088L64.891 14.2809C63.882 13.9144 63.0076 13.5679 62.1097 13.272C57.4013 11.7216 52.5819 13.8774 50.5135 18.3907C49.5449 20.5095 49.4441 22.7191 49.6391 24.9656C49.8011 26.8463 50.5313 28.6333 51.7326 30.0893C52.934 31.5454 54.5497 32.6016 56.3654 33.1179C60.3272 34.2681 64.1511 33.0843 66.5826 29.9364C66.7282 29.6853 66.837 29.4146 66.9055 29.1326L66.8954 29.1158ZM105.572 26.5833C104.196 28.2649 103.14 30.0743 101.6 31.2749C99.945 32.5731 97.8027 32.7614 95.6032 31.8433C95.4241 31.2683 95.3036 30.6768 95.2433 30.0776C95.2131 25.5946 95.203 21.1115 95.2433 16.625C95.2602 14.4356 95.6099 14.0825 97.7455 13.5982C97.7926 13.5982 97.8027 13.4132 97.8161 13.3729H88.8803C90.8242 14.1195 91.0024 14.3314 91.0058 16.3459C91.0058 20.5498 91.0058 24.7526 91.0058 28.9543C91.0058 29.7817 91.0865 30.7301 90.7233 31.4027C90.387 32.0081 89.5126 32.3141 88.7996 32.8018H104.539C104.902 30.6931 105.242 28.6987 105.598 26.6001L105.572 26.5833ZM136.546 32.8152C133.899 31.8298 133.856 31.7895 133.856 28.7996C133.856 24.8199 133.856 20.8435 133.856 16.8706C133.856 14.4054 134.047 14.18 136.435 13.6016C136.475 13.6016 136.472 13.4166 136.482 13.3695H126.669C128.845 14.1027 129.275 14.4625 129.288 16.1374C129.329 20.7853 129.305 25.4331 129.288 30.081C129.288 31.3018 128.71 32.0989 127.496 32.3646L126.611 32.5663L126.638 32.8152H136.546ZM23.4537 44.7241V37.2747H5.86108C10.9193 42.2152 16.724 44.3979 23.4537 44.7241ZM42.3377 37.2647H34.959V44.6299H42.3377V37.2647Z" fill="#1C0D3F"/>
<path d="M0.0915527 20.9212C0.254843 20.4553 0.390722 19.9803 0.498493 19.4986C1.08694 16.1136 2.50855 12.9282 4.63516 10.2297H22.8567C21.2054 10.7241 19.3993 11.1008 17.7312 11.8003C11.5262 14.4034 8.6642 20.494 10.8536 26.4367C12.515 30.9433 15.9488 33.5229 20.4688 34.7773C21.313 35.0127 22.1908 35.1338 23.045 35.4499H4.65534C2.51096 32.6454 1.08712 29.3578 0.508582 25.8751C0.411051 25.337 0.232805 24.8123 0.0915527 24.2809V20.9212Z" fill="#1C0D3F"/>
<path d="M23.6343 0.72583V8.26262H6.45874C6.69678 7.9251 6.96104 7.60687 7.24908 7.31086C10.9485 3.97126 15.2332 1.81212 20.2073 1.10586C20.5783 1.01699 20.9389 0.889632 21.2835 0.72583H23.6343Z" fill="#1C0D3F"/>
<path d="M42.4674 0.72583V8.30635H34.9003C34.8432 5.79072 34.7894 3.26164 34.7322 0.72583H42.4674Z" fill="#1C0D3F"/>
<path d="M144.433 32.8772H138.318L138.248 32.6452C138.584 32.5376 138.894 32.4266 139.223 32.329C140.262 32.0129 140.79 31.3436 140.787 30.2304C140.787 25.4649 140.787 20.6993 140.787 15.4494L138.413 13.6266L138.567 13.3508H144.621L154.852 25.6061L155.272 25.4716V22.8753C155.272 21.0793 155.198 19.2801 155.292 17.4942C155.393 15.5201 155.074 13.9091 152.77 13.3643H176.127V18.9236C175.417 17.6355 174.95 16.4853 174.22 15.5402C173.349 14.4203 171.994 14.0907 170.605 14.0571C169.34 14.0302 168.072 14.0571 166.905 14.0571C166.105 15.4427 165.896 19.3271 166.391 22.1286C169.118 22.845 170.372 21.9033 171.738 18.2442V27.661C171.173 26.5344 170.786 25.3068 170.023 24.3685C169.172 23.336 167.847 23.0939 166.3 23.3764C166.243 26.198 165.916 29.0029 166.528 31.801C168.788 32.847 170.857 32.3694 172.854 31.6194C174.963 30.8257 176.134 29.0096 177.105 27.0489L177.576 27.2204C177.24 29.0534 176.873 30.8896 176.497 32.8503H159.113C159.893 32.3728 160.862 32.0936 161.238 31.458C161.652 30.7618 161.601 29.7428 161.608 28.8616C161.638 24.7687 161.632 20.6758 161.608 16.5828C161.608 14.1412 159.967 13.0616 157.677 13.9259C156.59 14.3329 156.378 15.1703 156.385 16.2095C156.405 21.1466 156.385 26.0803 156.385 31.0073V33.338L156.072 33.5532C155.597 33.1795 155.148 32.7738 154.727 32.3391C150.963 27.8796 147.207 23.419 143.461 18.9572C143.101 18.5334 142.727 18.1231 142.152 17.4673C142.054 17.9412 141.985 18.4208 141.947 18.9034C141.947 22.1555 142.004 25.4111 141.914 28.6565C141.86 30.6576 142.132 32.2921 144.725 32.5174L144.433 32.8772Z" fill="#1C0D3F"/>
<path d="M107.71 32.7888C109.866 32.3382 110.065 30.7037 110.065 28.9313C110.065 24.946 110.085 20.964 110.048 16.982C110.028 14.5976 109.711 14.2075 107.357 13.4575C107.787 13.3572 108.223 13.2842 108.662 13.2389C111.86 13.2389 115.052 13.1884 118.247 13.286C119.417 13.3397 120.573 13.5663 121.677 13.9586C123.571 14.6077 124.772 15.8991 124.899 18.0246C125.03 20.2107 124.227 21.9292 122.246 22.844C121.02 23.3618 119.727 23.7015 118.405 23.8529C117.268 24.0144 116.088 23.8866 114.763 23.8866C114.763 26.4123 114.685 28.6387 114.796 30.855C114.847 31.864 115.368 32.1296 117.151 32.7888H107.71ZM114.773 23.0357C117.746 23.5099 119.589 22.4673 119.861 20.177C120.003 19.0656 119.996 17.9403 119.841 16.8307C119.481 14.2579 117.003 13.2086 114.773 14.6581V23.0357Z" fill="#1C0D3F"/>
<path d="M37.2607 22.0424H24.1814V10.4833C29.5591 9.47772 36.8235 14.4686 37.2607 22.0424Z" fill="#1C0D3F"/>
<path d="M37.1765 23.8118C37.6877 29.4753 30.6319 35.724 24.0603 35.2465V23.8118H37.1765Z" fill="#1C0D3F"/>
<path d="M78.3991 32.6396L80.0235 32.0645C80.3598 30.4166 80.1782 29.7103 78.9137 27.2821H72.3959L71.0708 31.6542L73.425 32.7775H67.9431C69.7928 31.8291 70.2973 30.2888 70.8657 28.7854C72.6594 24.077 74.4609 19.3799 76.2702 14.6939C76.5023 14.0818 76.7882 13.4932 77.2355 12.4641C77.7097 13.3284 78.0561 13.8396 78.2848 14.4013C80.3464 19.4763 82.3508 24.5748 84.4595 29.6296C84.9337 30.7663 85.7509 31.7618 86.4034 32.8111H78.4496L78.3991 32.6396ZM78.6211 26.1756C77.6525 23.697 76.7478 21.3865 75.8465 19.076L75.4059 19.1467C74.582 21.4168 73.7546 23.6903 72.8533 26.1756H78.6211Z" fill="#1C0D3F"/>
<path d="M66.9026 29.1328C66.8372 29.4143 66.7319 29.685 66.5898 29.9366C64.1583 33.0845 60.3344 34.2683 56.3726 33.1181C54.5569 32.6019 52.9412 31.5456 51.7398 30.0896C50.5385 28.6335 49.8083 26.8466 49.6463 24.9659C49.4512 22.7193 49.5521 20.5097 50.5207 18.3909C52.589 13.8776 57.4051 11.7218 62.1168 13.2722C63.0148 13.5682 63.8959 13.9146 64.8981 14.2812L66.5091 12.909V19.6958C66.2353 19.189 65.9344 18.6973 65.6078 18.2228C64.5988 16.965 63.7513 15.5121 62.5204 14.5233C59.8803 12.4247 56.5777 13.2857 55.3536 16.4134C53.7247 20.5114 53.6899 25.0709 55.256 29.1934C55.6789 30.3397 56.5193 31.2839 57.6087 31.8371C58.6982 32.3902 59.9564 32.5115 61.1314 32.1765C62.6314 31.7157 63.98 30.7471 65.3623 29.9467C65.7935 29.6329 66.1893 29.2732 66.5427 28.8739L66.9026 29.1328Z" fill="#1C0D3F"/>
<path d="M105.594 26.6025C105.237 28.7011 104.897 30.7089 104.534 32.8344H88.7947C89.5077 32.3467 90.3922 32.0407 90.7184 31.4353C91.0816 30.7627 90.9975 29.8143 91.0009 28.987C91.0211 24.7853 91.0211 20.5825 91.0009 16.3785C91.0009 14.3606 90.8193 14.1521 88.8754 13.4055H97.8281C97.8281 13.4459 97.8046 13.6208 97.7575 13.6309C95.6219 14.1084 95.2721 14.4615 95.2553 16.6577C95.2183 21.1374 95.2284 25.6205 95.2553 30.1103C95.3155 30.7094 95.4361 31.301 95.6151 31.8759C97.8146 32.794 99.957 32.6057 101.612 31.3075C103.162 30.0934 104.218 28.2773 105.594 26.6025Z" fill="#1C0D3F"/>
<path d="M136.574 32.8356H126.65L126.623 32.5867L127.507 32.3849C128.721 32.1091 129.296 31.3222 129.3 30.1014C129.3 25.4535 129.33 20.8056 129.3 16.1578C129.3 14.4762 128.856 14.1399 126.68 13.3899H136.537C136.537 13.437 136.537 13.6119 136.49 13.622C134.102 14.1937 133.911 14.4257 133.911 16.8909C133.911 20.8662 133.911 24.8425 133.911 28.82C133.897 31.8098 133.928 31.8502 136.574 32.8356Z" fill="#1C0D3F"/>
<path d="M23.4537 44.726C16.7274 44.3897 10.9193 42.2171 5.86108 37.2766H23.4537V44.726Z" fill="#1C0D3F"/>
<path d="M42.3375 37.2649V44.6302H34.9587V37.2649H42.3375Z" fill="#1C0D3F"/>
<path d="M114.775 23.0211V14.6569C116.995 13.1973 119.484 14.2567 119.843 16.8161C119.998 17.9257 120.005 19.051 119.864 20.1624C119.601 22.4527 117.758 23.4953 114.775 23.0211Z" fill="#F2F4F6"/>
<path d="M78.625 26.177H72.8572C73.7585 23.6916 74.5858 21.4181 75.4098 19.148L75.8504 19.0774C76.7517 21.3879 77.6564 23.6983 78.625 26.177Z" fill="#F2F4F6"/>
</svg>
