<svg width="264" height="45" viewBox="0 0 264 45" fill="none" xmlns="http://www.w3.org/2000/svg">
<g opacity="0.4" clip-path="url(#clip0_1_1353)">
<path d="M187.433 32.8758L187.725 32.5193C185.132 32.2939 184.86 30.6594 184.914 28.6584C185.004 25.4096 184.934 22.1541 184.947 18.9053C184.985 18.4227 185.054 17.943 185.152 17.4692C185.728 18.125 186.101 18.5353 186.461 18.9591C190.207 23.4186 193.965 27.8748 197.734 32.3276C198.154 32.7622 198.604 33.1679 199.079 33.5417L199.392 33.3264V30.9958C199.392 26.062 199.392 21.1283 199.392 16.1979C199.392 15.1587 199.597 14.3213 200.683 13.9143C202.974 13.05 204.605 14.1296 204.615 16.5712C204.615 20.6642 204.635 24.7571 204.615 28.8501C204.615 29.7312 204.659 30.7502 204.245 31.4464C203.868 32.082 202.9 32.3612 202.12 32.8388H219.51C219.887 30.878 220.24 29.0418 220.59 27.2089L220.119 27.0373C219.147 28.9981 217.977 30.8141 215.868 31.6078C213.87 32.3578 211.802 32.8354 209.542 31.7895C208.93 28.9913 209.256 26.1865 209.313 23.3648C210.86 23.0823 212.185 23.3244 213.036 24.3569C213.8 25.2851 214.186 26.5228 214.751 27.6494V18.2494C213.386 21.9085 212.132 22.8502 209.404 22.1339C208.923 19.3324 209.118 15.4479 209.919 14.0623C211.069 14.0623 212.337 14.0388 213.618 14.0623C215.007 14.096 216.362 14.4255 217.233 15.5455C217.963 16.4905 218.431 17.6407 219.14 18.9288V13.3594H195.76C198.064 13.9043 198.383 15.5152 198.282 17.4894C198.188 19.2786 198.262 21.0778 198.262 22.8704V25.4667L197.842 25.6013L187.611 13.346H181.557L181.403 13.6218L183.777 15.4446C183.777 20.6944 183.777 25.46 183.777 30.2256C183.777 31.3388 183.252 32.0081 182.213 32.3242C181.877 32.4217 181.561 32.5327 181.238 32.6403L181.308 32.8724L187.433 32.8758ZM150.714 32.785H160.164C158.385 32.1123 157.864 31.8735 157.81 30.8511C157.699 28.6348 157.776 26.4084 157.776 23.8827C159.102 23.8827 160.282 24.0105 161.419 23.8491C162.741 23.6977 164.034 23.3579 165.259 22.8401C167.237 21.9254 168.044 20.2068 167.913 18.0208C167.785 15.8952 166.585 14.6038 164.691 13.9547C163.587 13.5625 162.431 13.3358 161.261 13.2821C158.069 13.1846 154.871 13.2316 151.676 13.235C151.237 13.2804 150.801 13.3534 150.371 13.4536C152.725 14.2036 153.041 14.5937 153.061 16.9782C153.098 20.9601 153.061 24.9421 153.078 28.9274C153.068 30.6931 152.88 32.3343 150.714 32.785ZM80.2527 22.0229C79.8155 14.4491 72.5511 9.45819 67.1734 10.4638V22.0229H80.2527ZM80.1686 23.7919H67.0523V35.2266C73.634 35.7378 80.6899 29.4723 80.1787 23.8087L80.1686 23.7919ZM121.394 32.6202L121.434 32.7984H129.392C128.739 31.7491 127.922 30.7536 127.448 29.6169C125.339 24.5721 123.335 19.4635 121.273 14.3885C121.044 13.8269 120.698 13.3157 120.224 12.4514C119.776 13.4805 119.49 14.0691 119.258 14.6812C117.449 19.3761 115.647 24.0733 113.854 28.7727C113.279 30.276 112.781 31.8164 110.931 32.7648H116.41L114.056 31.6415L115.381 27.2694H121.902C123.166 29.6841 123.338 30.4038 123.012 32.0518L121.394 32.6202ZM109.895 29.1158L109.525 28.8803C109.172 29.2797 108.776 29.6394 108.345 29.9532C106.963 30.7536 105.614 31.7222 104.114 32.1829C102.943 32.516 101.689 32.3957 100.602 31.8461C99.5149 31.2964 98.6749 30.3576 98.2488 29.2166C96.6827 25.0942 96.7175 20.5347 98.3464 16.4367C99.5706 13.309 102.873 12.448 105.513 14.5466C106.744 15.5253 107.598 16.9782 108.601 18.2461C108.927 18.7206 109.228 19.2123 109.502 19.7191V12.9088L107.891 14.2809C106.882 13.9144 106.008 13.5679 105.11 13.272C100.401 11.7216 95.5819 13.8774 93.5135 18.3907C92.5449 20.5095 92.4441 22.7191 92.6391 24.9656C92.8011 26.8463 93.5313 28.6333 94.7326 30.0893C95.934 31.5454 97.5497 32.6016 99.3654 33.1179C103.327 34.2681 107.151 33.0843 109.583 29.9364C109.728 29.6853 109.837 29.4146 109.905 29.1326L109.895 29.1158ZM148.572 26.5833C147.196 28.2649 146.14 30.0743 144.6 31.2749C142.945 32.5731 140.803 32.7614 138.603 31.8433C138.424 31.2683 138.304 30.6768 138.243 30.0776C138.213 25.5946 138.203 21.1115 138.243 16.625C138.26 14.4356 138.61 14.0825 140.746 13.5982C140.793 13.5982 140.803 13.4132 140.816 13.3729H131.88C133.824 14.1195 134.002 14.3314 134.006 16.3459C134.006 20.5498 134.006 24.7526 134.006 28.9543C134.006 29.7817 134.087 30.7301 133.723 31.4027C133.387 32.0081 132.513 32.3141 131.8 32.8018H147.539C147.902 30.6931 148.242 28.6987 148.598 26.6001L148.572 26.5833ZM179.546 32.8152C176.899 31.8298 176.856 31.7895 176.856 28.7996C176.856 24.8199 176.856 20.8435 176.856 16.8706C176.856 14.4054 177.047 14.18 179.435 13.6016C179.475 13.6016 179.472 13.4166 179.482 13.3695H169.669C171.845 14.1027 172.275 14.4625 172.288 16.1374C172.329 20.7853 172.305 25.4331 172.288 30.081C172.288 31.3018 171.71 32.0989 170.496 32.3646L169.611 32.5663L169.638 32.8152H179.546ZM66.4537 44.7241V37.2747H48.8611C53.9193 42.2152 59.724 44.3979 66.4537 44.7241ZM85.3377 37.2647H77.959V44.6299H85.3377V37.2647Z" fill="#1C0D3F"/>
<path d="M43.0916 20.9212C43.2548 20.4553 43.3907 19.9803 43.4985 19.4986C44.0869 16.1136 45.5085 12.9282 47.6352 10.2297H65.8567C64.2054 10.7241 62.3993 11.1008 60.7312 11.8003C54.5262 14.4034 51.6642 20.494 53.8536 26.4367C55.515 30.9433 58.9488 33.5229 63.4688 34.7773C64.313 35.0127 65.1908 35.1338 66.045 35.4499H47.6553C45.511 32.6454 44.0871 29.3578 43.5086 25.8751C43.4111 25.337 43.2328 24.8123 43.0916 24.2809V20.9212Z" fill="#1C0D3F"/>
<path d="M66.6343 0.72583V8.26262H49.4587C49.6968 7.9251 49.961 7.60687 50.2491 7.31086C53.9485 3.97126 58.2332 1.81212 63.2073 1.10586C63.5783 1.01699 63.9389 0.889632 64.2835 0.72583H66.6343Z" fill="#1C0D3F"/>
<path d="M85.4674 0.72583V8.30635H77.9003C77.8432 5.79072 77.7894 3.26164 77.7322 0.72583H85.4674Z" fill="#1C0D3F"/>
<path d="M187.433 32.8772H181.318L181.248 32.6452C181.584 32.5376 181.894 32.4266 182.223 32.329C183.262 32.0129 183.79 31.3436 183.787 30.2304C183.787 25.4649 183.787 20.6993 183.787 15.4494L181.413 13.6266L181.567 13.3508H187.621L197.852 25.6061L198.272 25.4716V22.8753C198.272 21.0793 198.198 19.2801 198.292 17.4942C198.393 15.5201 198.074 13.9091 195.77 13.3643H219.127V18.9236C218.417 17.6355 217.95 16.4853 217.22 15.5402C216.349 14.4203 214.994 14.0907 213.605 14.0571C212.34 14.0302 211.072 14.0571 209.905 14.0571C209.105 15.4427 208.896 19.3271 209.391 22.1286C212.118 22.845 213.372 21.9033 214.738 18.2442V27.661C214.173 26.5344 213.786 25.3068 213.023 24.3685C212.172 23.336 210.847 23.0939 209.3 23.3764C209.243 26.198 208.916 29.0029 209.528 31.801C211.788 32.847 213.857 32.3694 215.854 31.6194C217.963 30.8257 219.134 29.0096 220.105 27.0489L220.576 27.2204C220.24 29.0534 219.873 30.8896 219.497 32.8503H202.113C202.893 32.3728 203.862 32.0936 204.238 31.458C204.652 30.7618 204.601 29.7428 204.608 28.8616C204.638 24.7687 204.632 20.6758 204.608 16.5828C204.608 14.1412 202.967 13.0616 200.677 13.9259C199.59 14.3329 199.378 15.1703 199.385 16.2095C199.405 21.1466 199.385 26.0803 199.385 31.0073V33.338L199.072 33.5532C198.597 33.1795 198.148 32.7738 197.727 32.3391C193.963 27.8796 190.207 23.419 186.461 18.9572C186.101 18.5334 185.727 18.1231 185.152 17.4673C185.054 17.9412 184.985 18.4208 184.947 18.9034C184.947 22.1555 185.004 25.4111 184.914 28.6565C184.86 30.6576 185.132 32.2921 187.725 32.5174L187.433 32.8772Z" fill="#1C0D3F"/>
<path d="M150.71 32.7888C152.866 32.3382 153.065 30.7037 153.065 28.9313C153.065 24.946 153.085 20.964 153.048 16.982C153.028 14.5976 152.711 14.2075 150.357 13.4575C150.787 13.3572 151.223 13.2842 151.662 13.2389C154.86 13.2389 158.052 13.1884 161.247 13.286C162.417 13.3397 163.573 13.5663 164.677 13.9586C166.571 14.6077 167.772 15.8991 167.899 18.0246C168.03 20.2107 167.227 21.9292 165.246 22.844C164.02 23.3618 162.727 23.7015 161.405 23.8529C160.268 24.0144 159.088 23.8866 157.763 23.8866C157.763 26.4123 157.685 28.6387 157.796 30.855C157.847 31.864 158.368 32.1296 160.151 32.7888H150.71ZM157.773 23.0357C160.746 23.5099 162.589 22.4673 162.861 20.177C163.003 19.0656 162.996 17.9403 162.841 16.8307C162.481 14.2579 160.003 13.2086 157.773 14.6581V23.0357Z" fill="#1C0D3F"/>
<path d="M80.2607 22.0424H67.1814V10.4833C72.5591 9.47772 79.8235 14.4686 80.2607 22.0424Z" fill="#1C0D3F"/>
<path d="M80.1765 23.8118C80.6877 29.4753 73.6319 35.724 67.0603 35.2465V23.8118H80.1765Z" fill="#1C0D3F"/>
<path d="M121.399 32.6396L123.024 32.0645C123.36 30.4166 123.178 29.7103 121.914 27.2821H115.396L114.071 31.6542L116.425 32.7775H110.943C112.793 31.8291 113.297 30.2888 113.866 28.7854C115.659 24.077 117.461 19.3799 119.27 14.6939C119.502 14.0818 119.788 13.4932 120.235 12.4641C120.71 13.3284 121.056 13.8396 121.285 14.4013C123.346 19.4763 125.351 24.5748 127.459 29.6296C127.934 30.7663 128.751 31.7618 129.403 32.8111H121.45L121.399 32.6396ZM121.621 26.1756C120.652 23.697 119.748 21.3865 118.846 19.076L118.406 19.1467C117.582 21.4168 116.755 23.6903 115.853 26.1756H121.621Z" fill="#1C0D3F"/>
<path d="M109.903 29.1328C109.837 29.4143 109.732 29.685 109.59 29.9366C107.158 33.0845 103.334 34.2683 99.3726 33.1181C97.5569 32.6019 95.9412 31.5456 94.7398 30.0896C93.5385 28.6335 92.8083 26.8466 92.6463 24.9659C92.4512 22.7193 92.5521 20.5097 93.5207 18.3909C95.589 13.8776 100.405 11.7218 105.117 13.2722C106.015 13.5682 106.896 13.9146 107.898 14.2812L109.509 12.909V19.6958C109.235 19.189 108.934 18.6973 108.608 18.2228C107.599 16.965 106.751 15.5121 105.52 14.5233C102.88 12.4247 99.5777 13.2857 98.3536 16.4134C96.7247 20.5114 96.6899 25.0709 98.256 29.1934C98.6789 30.3397 99.5193 31.2839 100.609 31.8371C101.698 32.3902 102.956 32.5115 104.131 32.1765C105.631 31.7157 106.98 30.7471 108.362 29.9467C108.793 29.6329 109.189 29.2732 109.543 28.8739L109.903 29.1328Z" fill="#1C0D3F"/>
<path d="M148.594 26.6025C148.237 28.7011 147.897 30.7089 147.534 32.8344H131.795C132.508 32.3467 133.392 32.0407 133.718 31.4353C134.082 30.7627 133.998 29.8143 134.001 28.987C134.021 24.7853 134.021 20.5825 134.001 16.3785C134.001 14.3606 133.819 14.1521 131.875 13.4055H140.828C140.828 13.4459 140.805 13.6208 140.757 13.6309C138.622 14.1084 138.272 14.4615 138.255 16.6577C138.218 21.1374 138.228 25.6205 138.255 30.1103C138.316 30.7094 138.436 31.301 138.615 31.8759C140.815 32.794 142.957 32.6057 144.612 31.3075C146.162 30.0934 147.218 28.2773 148.594 26.6025Z" fill="#1C0D3F"/>
<path d="M179.574 32.8356H169.65L169.623 32.5867L170.507 32.3849C171.721 32.1091 172.296 31.3222 172.3 30.1014C172.3 25.4535 172.33 20.8056 172.3 16.1578C172.3 14.4762 171.856 14.1399 169.68 13.3899H179.537C179.537 13.437 179.537 13.6119 179.49 13.622C177.102 14.1937 176.911 14.4257 176.911 16.8909C176.911 20.8662 176.911 24.8425 176.911 28.82C176.897 31.8098 176.928 31.8502 179.574 32.8356Z" fill="#1C0D3F"/>
<path d="M66.4537 44.726C59.7274 44.3897 53.9193 42.2171 48.8611 37.2766H66.4537V44.726Z" fill="#1C0D3F"/>
<path d="M85.3375 37.2649V44.6302H77.9587V37.2649H85.3375Z" fill="#1C0D3F"/>
<path d="M157.775 23.0211V14.6569C159.995 13.1973 162.484 14.2567 162.843 16.8161C162.998 17.9257 163.005 19.051 162.864 20.1624C162.601 22.4527 160.758 23.4953 157.775 23.0211Z" fill="#F2F4F6"/>
<path d="M121.625 26.177H115.857C116.759 23.6916 117.586 21.4181 118.41 19.148L118.85 19.0774C119.752 21.3879 120.656 23.6983 121.625 26.177Z" fill="#F2F4F6"/>
</g>
<defs>
<clipPath id="clip0_1_1353">
<rect width="263.311" height="44" fill="white" transform="translate(0.0915527 0.72583)"/>
</clipPath>
</defs>
</svg>
