<svg width="188" height="40" viewBox="0 0 188 40" fill="none" xmlns="http://www.w3.org/2000/svg">
<path fill-rule="evenodd" clip-rule="evenodd" d="M179.468 33.7601C179.022 33.7601 178.772 33.4834 178.772 33.1057C178.772 32.728 179.022 32.4513 179.468 32.4513C180.586 32.4513 181.082 32.0986 181.801 30.1865L182.273 28.9781L178.077 18.0806C178.053 18.0051 178.028 17.8795 178.028 17.7535C178.028 17.4266 178.301 17.1243 178.698 17.1243C178.997 17.1243 179.22 17.2753 179.344 17.6279L182.944 27.1159H182.969L186.47 17.6279C186.594 17.2753 186.817 17.1243 187.115 17.1243C187.511 17.1243 187.76 17.4266 187.76 17.7535C187.76 17.8795 187.735 18.0051 187.71 18.0806L183.043 30.3874C182 33.1812 181.155 33.7601 179.667 33.7601H179.468ZM171.778 28.6011V15.7907C171.778 12.9216 172.696 12.1161 175.08 12.1161H175.428C175.874 12.1161 176.124 12.3928 176.124 12.7706C176.124 13.1481 175.874 13.425 175.428 13.425C173.467 13.425 173.119 13.7268 173.119 15.6144V17.0742C173.119 17.1749 173.169 17.2251 173.268 17.2251H175.502C175.924 17.2251 176.124 17.4769 176.124 17.8293C176.124 18.1815 175.924 18.4335 175.502 18.4335H173.268C173.169 18.4335 173.119 18.4835 173.119 18.584V28.6011C173.119 29.079 172.845 29.3308 172.449 29.3308C172.051 29.3308 171.778 29.079 171.778 28.6011ZM167.691 28.6011V17.8542C167.691 17.3763 167.964 17.1243 168.363 17.1243C168.76 17.1243 169.032 17.3763 169.032 17.8542V28.6011C169.032 29.079 168.76 29.3308 168.363 29.3308C167.964 29.3308 167.691 29.079 167.691 28.6011ZM167.319 13.073C167.319 12.4937 167.791 12.0159 168.363 12.0159C168.933 12.0159 169.405 12.4937 169.405 13.073C169.405 13.6515 168.933 14.1297 168.363 14.1297C167.791 14.1297 167.319 13.6515 167.319 13.073ZM158.885 28.6011V17.8542C158.885 17.3763 159.158 17.1243 159.555 17.1243C159.952 17.1243 160.226 17.3763 160.226 17.8542V19.0121H160.251C160.698 17.804 161.815 16.9738 163.355 16.9738C164.298 16.9738 164.918 17.2251 165.389 17.5023C165.688 17.6781 165.786 17.8795 165.786 18.106C165.786 18.4835 165.513 18.7856 165.116 18.7856C165.017 18.7856 164.893 18.7601 164.769 18.7101C164.223 18.4586 163.701 18.2823 163.105 18.2823C161.02 18.2823 160.226 20.0942 160.226 22.3345V28.6011C160.226 29.079 159.952 29.3308 159.555 29.3308C159.158 29.3308 158.885 29.079 158.885 28.6011ZM155.08 22.3595C155.179 22.3595 155.229 22.3091 155.229 22.2083C155.229 21.5037 155.155 20.9747 155.006 20.4967C154.534 19.0121 153.367 18.2321 151.828 18.2321C150.288 18.2321 149.147 19.0121 148.674 20.4967C148.525 20.9747 148.45 21.5037 148.45 22.2083C148.45 22.3091 148.5 22.3595 148.6 22.3595H155.08ZM147.457 26.3359C147.209 25.5806 147.086 24.7504 147.086 23.2153C147.086 21.7046 147.209 20.8747 147.457 20.0942C148.103 18.0806 149.717 16.9738 151.828 16.9738C153.962 16.9738 155.576 18.0806 156.222 20.0942C156.471 20.8493 156.595 21.7552 156.595 22.9634C156.595 23.3408 156.346 23.5924 155.973 23.5924H148.6C148.5 23.5924 148.45 23.6426 148.45 23.7434C148.45 24.7251 148.5 25.2285 148.699 25.8321C149.22 27.4177 150.438 28.173 152.051 28.173C153.391 28.173 154.36 27.7448 155.254 26.8138C155.377 26.688 155.551 26.5623 155.75 26.5623C156.098 26.5623 156.346 26.8138 156.346 27.1414C156.346 27.3172 156.296 27.4682 156.197 27.5941C155.353 28.6766 153.938 29.4818 151.977 29.4818C149.692 29.4818 148.128 28.3992 147.457 26.3359ZM133.726 22.3595C133.826 22.3595 133.875 22.3091 133.875 22.2083C133.875 21.5037 133.801 20.9747 133.652 20.4967C133.18 19.0121 132.013 18.2321 130.474 18.2321C128.934 18.2321 127.792 19.0121 127.321 20.4967C127.172 20.9747 127.097 21.5037 127.097 22.2083C127.097 22.3091 127.147 22.3595 127.246 22.3595H133.726ZM126.104 26.3359C125.856 25.5806 125.732 24.7504 125.732 23.2153C125.732 21.7046 125.856 20.8747 126.104 20.0942C126.749 18.0806 128.363 16.9738 130.474 16.9738C132.609 16.9738 134.222 18.0806 134.868 20.0942C135.117 20.8493 135.241 21.7552 135.241 22.9634C135.241 23.3408 134.992 23.5924 134.62 23.5924H127.246C127.147 23.5924 127.097 23.6426 127.097 23.7434C127.097 24.7251 127.147 25.2285 127.345 25.8321C127.866 27.4177 129.084 28.173 130.697 28.173C132.038 28.173 133.006 27.7448 133.9 26.8138C134.023 26.688 134.197 26.5623 134.396 26.5623C134.744 26.5623 134.992 26.8138 134.992 27.1414C134.992 27.3172 134.943 27.4682 134.843 27.5941C133.999 28.6766 132.583 29.4818 130.623 29.4818C128.338 29.4818 126.774 28.3992 126.104 26.3359ZM140.238 28.5504L134.949 13.0225C134.924 12.9216 134.899 12.7957 134.899 12.6951C134.899 12.2921 135.197 12.0159 135.595 12.0159C135.893 12.0159 136.141 12.217 136.265 12.5694L141.106 26.8392H141.156L145.923 12.5694C146.047 12.217 146.296 12.0159 146.594 12.0159C146.99 12.0159 147.288 12.2921 147.288 12.6951C147.288 12.7957 147.264 12.947 147.239 13.0225L141.951 28.5504C141.777 29.079 141.553 29.3308 141.081 29.3308C140.635 29.3308 140.411 29.079 140.238 28.5504ZM123.46 29.3308C121.648 29.3308 121.002 28.4752 121.002 26.5119V12.771C121.002 12.2929 121.275 12.041 121.673 12.041C122.069 12.041 122.342 12.2929 122.342 12.771V26.4615C122.342 27.6446 122.665 28.0217 123.708 28.0217C124.155 28.0217 124.403 28.2987 124.403 28.6766C124.403 29.0536 124.155 29.3308 123.708 29.3308H123.46ZM117.129 26.0085C117.377 25.2285 117.452 24.4232 117.452 23.2153C117.452 22.0319 117.377 21.2266 117.129 20.4466C116.682 19.0876 115.614 18.2823 114.099 18.2823C112.61 18.2823 111.518 18.962 111.045 20.3711C110.848 21.0252 110.748 22.0319 110.748 23.2153C110.748 24.4232 110.848 25.4297 111.045 26.0842C111.518 27.4936 112.61 28.173 114.099 28.173C115.614 28.173 116.682 27.3676 117.129 26.0085ZM110.773 27.7201H110.748V28.6011C110.748 29.079 110.475 29.3308 110.078 29.3308C109.681 29.3308 109.407 29.079 109.407 28.6011V12.7456C109.407 12.2676 109.681 12.0159 110.078 12.0159C110.475 12.0159 110.748 12.2676 110.748 12.7456V18.735H110.773C111.343 17.7034 112.387 16.9738 114.324 16.9738C116.334 16.9738 117.774 18.0558 118.395 19.9434C118.693 20.9248 118.817 21.8561 118.817 23.2153C118.817 24.5994 118.693 25.5305 118.395 26.5119C117.774 28.3992 116.334 29.4818 114.324 29.4818C112.387 29.4818 111.343 28.7519 110.773 27.7201ZM105.46 28.6011V27.7702H105.436C104.765 28.8524 103.649 29.4818 101.985 29.4818C99.3777 29.4818 97.8878 27.8208 97.8878 24.9012V17.8542C97.8878 17.3763 98.1608 17.1243 98.5586 17.1243C98.9557 17.1243 99.2279 17.3763 99.2279 17.8542V24.5741C99.2279 26.9649 100.222 28.173 102.283 28.173C104.07 28.173 105.46 26.8894 105.46 24.8259V17.8542C105.46 17.3763 105.734 17.1243 106.131 17.1243C106.528 17.1243 106.802 17.3763 106.802 17.8542V28.6011C106.802 29.079 106.528 29.3308 106.131 29.3308C105.734 29.3308 105.46 29.079 105.46 28.6011ZM94.2989 25.933C94.5225 25.2535 94.6217 24.5237 94.6217 23.2153C94.6217 21.9314 94.5225 21.2017 94.2989 20.5221C93.8276 19.0876 92.6854 18.2823 91.1457 18.2823C89.6315 18.2823 88.4895 19.0876 88.0177 20.5221C87.7944 21.2017 87.6955 21.9314 87.6955 23.2153C87.6955 24.5237 87.7944 25.2535 88.0177 25.933C88.4895 27.3676 89.6315 28.173 91.1457 28.173C92.6854 28.173 93.8276 27.3676 94.2989 25.933ZM86.7265 26.3614C86.4786 25.5558 86.3302 24.6749 86.3302 23.2153C86.3302 21.7801 86.4786 20.8997 86.7265 20.0942C87.3724 18.106 88.9865 16.9738 91.1457 16.9738C93.3315 16.9738 94.9447 18.106 95.5904 20.0942C95.8386 20.8997 95.9876 21.7801 95.9876 23.2153C95.9876 24.6749 95.8386 25.5558 95.5904 26.3614C94.9447 28.3491 93.3315 29.4818 91.1457 29.4818C88.9865 29.4818 87.3724 28.3491 86.7265 26.3614ZM74.6181 27.9719H77.9949C80.5273 27.9719 81.8681 27.1164 82.5631 24.9767C82.8853 23.9452 83.0101 22.9634 83.0101 20.7739C83.0101 18.5845 82.8853 17.6032 82.5631 16.5708C81.8681 14.432 80.5273 13.5762 77.9949 13.5762H74.6181C74.5189 13.5762 74.4691 13.6265 74.4691 13.7272V27.8208C74.4691 27.9217 74.5189 27.9719 74.6181 27.9719ZM73.054 12.8966C73.054 12.4685 73.3279 12.217 73.749 12.217H78.1932C81.2964 12.217 83.1343 13.6012 83.929 16.0928C84.3019 17.2758 84.4253 18.3076 84.4253 20.7739C84.4253 23.2406 84.3019 24.2722 83.929 25.455C83.1343 27.9466 81.2964 29.3308 78.1932 29.3308H73.749C73.3279 29.3308 73.054 29.0789 73.054 28.6511V12.8966Z" fill="#1C0D3F"/>
<path fill-rule="evenodd" clip-rule="evenodd" d="M2.75821 33.7597C1.66588 33.7597 0.780518 32.8367 0.780518 31.6978V8.14699C0.780518 7.00821 1.66588 6.08521 2.75821 6.08521C3.85055 6.08521 4.73591 7.00821 4.73591 8.14699V31.6978C4.73591 32.8367 3.85055 33.7597 2.75821 33.7597Z" fill="#1C0D3F"/>
<path fill-rule="evenodd" clip-rule="evenodd" d="M11.5066 33.7597H8.7945C7.6434 33.7597 6.71021 32.8371 6.71021 31.6985C6.71021 30.56 7.6434 29.6375 8.7945 29.6375H11.5066C16.9232 29.6375 21.3298 25.2792 21.3298 19.923C21.3298 14.5659 16.9232 10.2077 11.5066 10.2077H8.7945C7.6434 10.2077 6.71021 9.2848 6.71021 8.14637C6.71021 7.00793 7.6434 6.08521 8.7945 6.08521H11.5066C19.2216 6.08521 25.4984 12.2928 25.4984 19.923C25.4984 27.5524 19.2216 33.7597 11.5066 33.7597Z" fill="#1C0D3F"/>
<path fill-rule="evenodd" clip-rule="evenodd" d="M40.2847 33.7597C39.5219 33.7597 38.7919 33.3191 38.4481 32.5684L27.666 9.01843C27.1934 7.98645 27.632 6.75987 28.6457 6.27871C29.659 5.79775 30.8635 6.24418 31.3362 7.27635L42.1185 30.8262C42.5909 31.8583 42.1523 33.0847 41.1388 33.5662C40.8624 33.6974 40.5711 33.7597 40.2847 33.7597Z" fill="#1C0D3F"/>
<path fill-rule="evenodd" clip-rule="evenodd" d="M44.1168 25.8526C43.8383 25.8526 43.556 25.7903 43.2872 25.6585C42.3031 25.1765 41.8774 23.9476 42.3363 22.914L49.2806 7.27803C49.74 6.24439 50.9096 5.79684 51.8935 6.27956C52.8777 6.7615 53.3031 7.99025 52.8441 9.02389L45.8999 24.66C45.5662 25.4112 44.8572 25.8526 44.1168 25.8526Z" fill="#1C0D3F"/>
<path fill-rule="evenodd" clip-rule="evenodd" d="M63.0774 39.6903H63.5718V0.155518H63.0774V39.6903Z" fill="#1C0D3F"/>
</svg>
