<svg width="265" height="41" viewBox="0 0 265 41" fill="none" xmlns="http://www.w3.org/2000/svg">
<g opacity="0.4" clip-path="url(#clip0_1_1345)">
<path fill-rule="evenodd" clip-rule="evenodd" d="M218.468 34.7601C218.022 34.7601 217.772 34.4834 217.772 34.1057C217.772 33.728 218.022 33.4513 218.468 33.4513C219.586 33.4513 220.082 33.0986 220.801 31.1865L221.273 29.9781L217.077 19.0806C217.053 19.0051 217.028 18.8795 217.028 18.7535C217.028 18.4266 217.301 18.1243 217.698 18.1243C217.997 18.1243 218.22 18.2753 218.344 18.6279L221.944 28.1159H221.969L225.47 18.6279C225.594 18.2753 225.817 18.1243 226.115 18.1243C226.511 18.1243 226.76 18.4266 226.76 18.7535C226.76 18.8795 226.735 19.0051 226.71 19.0806L222.043 31.3874C221 34.1812 220.155 34.7601 218.667 34.7601H218.468ZM210.778 29.6011V16.7907C210.778 13.9216 211.696 13.1161 214.08 13.1161H214.428C214.874 13.1161 215.124 13.3928 215.124 13.7706C215.124 14.1481 214.874 14.425 214.428 14.425C212.467 14.425 212.119 14.7268 212.119 16.6144V18.0742C212.119 18.1749 212.169 18.2251 212.268 18.2251H214.502C214.924 18.2251 215.124 18.4769 215.124 18.8293C215.124 19.1815 214.924 19.4335 214.502 19.4335H212.268C212.169 19.4335 212.119 19.4835 212.119 19.584V29.6011C212.119 30.079 211.845 30.3308 211.449 30.3308C211.051 30.3308 210.778 30.079 210.778 29.6011ZM206.691 29.6011V18.8542C206.691 18.3763 206.964 18.1243 207.363 18.1243C207.76 18.1243 208.032 18.3763 208.032 18.8542V29.6011C208.032 30.079 207.76 30.3308 207.363 30.3308C206.964 30.3308 206.691 30.079 206.691 29.6011ZM206.319 14.073C206.319 13.4937 206.791 13.0159 207.363 13.0159C207.933 13.0159 208.405 13.4937 208.405 14.073C208.405 14.6515 207.933 15.1297 207.363 15.1297C206.791 15.1297 206.319 14.6515 206.319 14.073ZM197.885 29.6011V18.8542C197.885 18.3763 198.158 18.1243 198.555 18.1243C198.952 18.1243 199.226 18.3763 199.226 18.8542V20.0121H199.251C199.698 18.804 200.815 17.9738 202.355 17.9738C203.298 17.9738 203.918 18.2251 204.389 18.5023C204.688 18.6781 204.786 18.8795 204.786 19.106C204.786 19.4835 204.513 19.7856 204.116 19.7856C204.017 19.7856 203.893 19.7601 203.769 19.7101C203.223 19.4586 202.701 19.2823 202.105 19.2823C200.02 19.2823 199.226 21.0942 199.226 23.3345V29.6011C199.226 30.079 198.952 30.3308 198.555 30.3308C198.158 30.3308 197.885 30.079 197.885 29.6011ZM194.08 23.3595C194.179 23.3595 194.229 23.3091 194.229 23.2083C194.229 22.5037 194.155 21.9747 194.006 21.4967C193.534 20.0121 192.367 19.2321 190.828 19.2321C189.288 19.2321 188.147 20.0121 187.674 21.4967C187.525 21.9747 187.45 22.5037 187.45 23.2083C187.45 23.3091 187.5 23.3595 187.6 23.3595H194.08ZM186.457 27.3359C186.209 26.5806 186.086 25.7504 186.086 24.2153C186.086 22.7046 186.209 21.8747 186.457 21.0942C187.103 19.0806 188.717 17.9738 190.828 17.9738C192.962 17.9738 194.576 19.0806 195.222 21.0942C195.471 21.8493 195.595 22.7552 195.595 23.9634C195.595 24.3408 195.346 24.5924 194.973 24.5924H187.6C187.5 24.5924 187.45 24.6426 187.45 24.7434C187.45 25.7251 187.5 26.2285 187.699 26.8321C188.22 28.4177 189.438 29.173 191.051 29.173C192.391 29.173 193.36 28.7448 194.254 27.8138C194.377 27.688 194.551 27.5623 194.75 27.5623C195.098 27.5623 195.346 27.8138 195.346 28.1414C195.346 28.3172 195.296 28.4682 195.197 28.5941C194.353 29.6766 192.938 30.4818 190.977 30.4818C188.692 30.4818 187.128 29.3992 186.457 27.3359ZM172.726 23.3595C172.826 23.3595 172.875 23.3091 172.875 23.2083C172.875 22.5037 172.801 21.9747 172.652 21.4967C172.18 20.0121 171.013 19.2321 169.474 19.2321C167.934 19.2321 166.792 20.0121 166.321 21.4967C166.172 21.9747 166.097 22.5037 166.097 23.2083C166.097 23.3091 166.147 23.3595 166.246 23.3595H172.726ZM165.104 27.3359C164.856 26.5806 164.732 25.7504 164.732 24.2153C164.732 22.7046 164.856 21.8747 165.104 21.0942C165.749 19.0806 167.363 17.9738 169.474 17.9738C171.609 17.9738 173.222 19.0806 173.868 21.0942C174.117 21.8493 174.241 22.7552 174.241 23.9634C174.241 24.3408 173.992 24.5924 173.62 24.5924H166.246C166.147 24.5924 166.097 24.6426 166.097 24.7434C166.097 25.7251 166.147 26.2285 166.345 26.8321C166.866 28.4177 168.084 29.173 169.697 29.173C171.038 29.173 172.006 28.7448 172.9 27.8138C173.023 27.688 173.197 27.5623 173.396 27.5623C173.744 27.5623 173.992 27.8138 173.992 28.1414C173.992 28.3172 173.943 28.4682 173.843 28.5941C172.999 29.6766 171.583 30.4818 169.623 30.4818C167.338 30.4818 165.774 29.3992 165.104 27.3359ZM179.238 29.5504L173.949 14.0225C173.924 13.9216 173.899 13.7957 173.899 13.6951C173.899 13.2921 174.197 13.0159 174.595 13.0159C174.893 13.0159 175.141 13.217 175.265 13.5694L180.106 27.8392H180.156L184.923 13.5694C185.047 13.217 185.296 13.0159 185.594 13.0159C185.99 13.0159 186.288 13.2921 186.288 13.6951C186.288 13.7957 186.264 13.947 186.239 14.0225L180.951 29.5504C180.777 30.079 180.553 30.3308 180.081 30.3308C179.635 30.3308 179.411 30.079 179.238 29.5504ZM162.46 30.3308C160.648 30.3308 160.002 29.4752 160.002 27.5119V13.771C160.002 13.2929 160.275 13.041 160.673 13.041C161.069 13.041 161.342 13.2929 161.342 13.771V27.4615C161.342 28.6446 161.665 29.0217 162.708 29.0217C163.155 29.0217 163.403 29.2987 163.403 29.6766C163.403 30.0536 163.155 30.3308 162.708 30.3308H162.46ZM156.129 27.0085C156.377 26.2285 156.452 25.4232 156.452 24.2153C156.452 23.0319 156.377 22.2266 156.129 21.4466C155.682 20.0876 154.614 19.2823 153.099 19.2823C151.61 19.2823 150.518 19.962 150.045 21.3711C149.848 22.0252 149.748 23.0319 149.748 24.2153C149.748 25.4232 149.848 26.4297 150.045 27.0842C150.518 28.4936 151.61 29.173 153.099 29.173C154.614 29.173 155.682 28.3676 156.129 27.0085ZM149.773 28.7201H149.748V29.6011C149.748 30.079 149.475 30.3308 149.078 30.3308C148.681 30.3308 148.407 30.079 148.407 29.6011V13.7456C148.407 13.2676 148.681 13.0159 149.078 13.0159C149.475 13.0159 149.748 13.2676 149.748 13.7456V19.735H149.773C150.343 18.7034 151.387 17.9738 153.324 17.9738C155.334 17.9738 156.774 19.0558 157.395 20.9434C157.693 21.9248 157.817 22.8561 157.817 24.2153C157.817 25.5994 157.693 26.5305 157.395 27.5119C156.774 29.3992 155.334 30.4818 153.324 30.4818C151.387 30.4818 150.343 29.7519 149.773 28.7201ZM144.46 29.6011V28.7702H144.436C143.765 29.8524 142.649 30.4818 140.985 30.4818C138.378 30.4818 136.888 28.8208 136.888 25.9012V18.8542C136.888 18.3763 137.161 18.1243 137.559 18.1243C137.956 18.1243 138.228 18.3763 138.228 18.8542V25.5741C138.228 27.9649 139.222 29.173 141.283 29.173C143.07 29.173 144.46 27.8894 144.46 25.8259V18.8542C144.46 18.3763 144.734 18.1243 145.131 18.1243C145.528 18.1243 145.802 18.3763 145.802 18.8542V29.6011C145.802 30.079 145.528 30.3308 145.131 30.3308C144.734 30.3308 144.46 30.079 144.46 29.6011ZM133.299 26.933C133.522 26.2535 133.622 25.5237 133.622 24.2153C133.622 22.9314 133.522 22.2017 133.299 21.5221C132.828 20.0876 131.685 19.2823 130.146 19.2823C128.631 19.2823 127.489 20.0876 127.018 21.5221C126.794 22.2017 126.696 22.9314 126.696 24.2153C126.696 25.5237 126.794 26.2535 127.018 26.933C127.489 28.3676 128.631 29.173 130.146 29.173C131.685 29.173 132.828 28.3676 133.299 26.933ZM125.727 27.3614C125.479 26.5558 125.33 25.6749 125.33 24.2153C125.33 22.7801 125.479 21.8997 125.727 21.0942C126.372 19.106 127.987 17.9738 130.146 17.9738C132.331 17.9738 133.945 19.106 134.59 21.0942C134.839 21.8997 134.988 22.7801 134.988 24.2153C134.988 25.6749 134.839 26.5558 134.59 27.3614C133.945 29.3491 132.331 30.4818 130.146 30.4818C127.987 30.4818 126.372 29.3491 125.727 27.3614ZM113.618 28.9719H116.995C119.527 28.9719 120.868 28.1164 121.563 25.9767C121.885 24.9452 122.01 23.9634 122.01 21.7739C122.01 19.5845 121.885 18.6032 121.563 17.5708C120.868 15.432 119.527 14.5762 116.995 14.5762H113.618C113.519 14.5762 113.469 14.6265 113.469 14.7272V28.8208C113.469 28.9217 113.519 28.9719 113.618 28.9719ZM112.054 13.8966C112.054 13.4685 112.328 13.217 112.749 13.217H117.193C120.296 13.217 122.134 14.6012 122.929 17.0928C123.302 18.2758 123.425 19.3076 123.425 21.7739C123.425 24.2406 123.302 25.2722 122.929 26.455C122.134 28.9466 120.296 30.3308 117.193 30.3308H112.749C112.328 30.3308 112.054 30.0789 112.054 29.6511V13.8966Z" fill="#1C0D3F"/>
<path fill-rule="evenodd" clip-rule="evenodd" d="M41.7582 34.7597C40.6659 34.7597 39.7805 33.8367 39.7805 32.6978V9.14699C39.7805 8.00821 40.6659 7.08521 41.7582 7.08521C42.8505 7.08521 43.7359 8.00821 43.7359 9.14699V32.6978C43.7359 33.8367 42.8505 34.7597 41.7582 34.7597Z" fill="#1C0D3F"/>
<path fill-rule="evenodd" clip-rule="evenodd" d="M50.5066 34.7597H47.7945C46.6434 34.7597 45.7102 33.8371 45.7102 32.6985C45.7102 31.56 46.6434 30.6375 47.7945 30.6375H50.5066C55.9232 30.6375 60.3298 26.2792 60.3298 20.923C60.3298 15.5659 55.9232 11.2077 50.5066 11.2077H47.7945C46.6434 11.2077 45.7102 10.2848 45.7102 9.14637C45.7102 8.00793 46.6434 7.08521 47.7945 7.08521H50.5066C58.2216 7.08521 64.4984 13.2928 64.4984 20.923C64.4984 28.5524 58.2216 34.7597 50.5066 34.7597Z" fill="#1C0D3F"/>
<path fill-rule="evenodd" clip-rule="evenodd" d="M79.2847 34.7597C78.5219 34.7597 77.7919 34.3191 77.4481 33.5684L66.666 10.0184C66.1934 8.98645 66.632 7.75987 67.6457 7.27871C68.659 6.79775 69.8635 7.24418 70.3362 8.27635L81.1185 31.8262C81.5909 32.8583 81.1523 34.0847 80.1388 34.5662C79.8624 34.6974 79.5711 34.7597 79.2847 34.7597Z" fill="#1C0D3F"/>
<path fill-rule="evenodd" clip-rule="evenodd" d="M83.1168 26.8526C82.8383 26.8526 82.556 26.7903 82.2872 26.6585C81.3031 26.1765 80.8774 24.9476 81.3363 23.914L88.2806 8.27803C88.74 7.24439 89.9096 6.79684 90.8935 7.27956C91.8777 7.7615 92.3031 8.99025 91.8441 10.0239L84.8999 25.66C84.5662 26.4112 83.8572 26.8526 83.1168 26.8526Z" fill="#1C0D3F"/>
<path fill-rule="evenodd" clip-rule="evenodd" d="M102.077 40.6903H102.572V1.15552H102.077V40.6903Z" fill="#1C0D3F"/>
</g>
<defs>
<clipPath id="clip0_1_1345">
<rect width="263.311" height="40" fill="white" transform="translate(0.780518 0.72583)"/>
</clipPath>
</defs>
</svg>
