<svg width="264" height="35" viewBox="0 0 264 35" fill="none" xmlns="http://www.w3.org/2000/svg">
<g opacity="0.4" clip-path="url(#clip0_1_1338)">
<path d="M132.158 10.3431C133.007 9.26825 134.534 8.58937 136.232 8.58937C140.276 8.58937 142.341 10.5694 142.398 14.5012V23.1002C142.398 23.8073 141.832 24.3448 141.153 24.3448C140.446 24.3448 139.909 23.779 139.909 23.1002V14.9255C139.909 12.0403 138.834 10.8523 136.232 10.8523C133.544 10.8523 132.158 12.2949 132.158 15.1518V23.1002C132.158 23.8073 131.593 24.3448 130.914 24.3448C130.207 24.3448 129.669 23.779 129.669 23.1002V1.97042C129.669 1.26327 130.235 0.72583 130.914 0.72583C131.621 0.72583 132.158 1.29155 132.158 1.97042V10.3431Z" fill="#1C0D3F"/>
<path d="M88.4845 1.60273C84.2133 1.60273 82.7141 4.57277 82.7141 7.34481V9.04198H81.809C81.1584 9.04198 80.6493 9.55113 80.6493 10.2017C80.6493 10.8523 81.1584 11.3614 81.809 11.3614H82.7141V23.0719C82.7141 23.7508 83.2516 24.3165 83.9587 24.3165C84.6376 24.3165 85.2033 23.7791 85.2033 23.0719V11.3614H87.9471C88.5977 11.3614 89.1068 10.8523 89.1068 10.2017C89.1068 9.55113 88.5977 9.04198 87.9471 9.04198H85.2033V7.34481C85.2033 5.78907 85.769 3.95047 88.5128 3.95047C89.1634 3.95047 89.6725 3.44132 89.6725 2.79074C89.6442 2.11187 89.1351 1.60273 88.4845 1.60273Z" fill="#1C0D3F"/>
<path d="M98.1018 8.64595C96.2632 8.64595 94.7074 9.40968 93.8306 10.6543V10.0037C93.8306 9.32481 93.2931 8.75909 92.586 8.75909C91.9071 8.75909 91.3414 9.29653 91.3414 10.0037V23.0719C91.3414 23.7508 91.8788 24.3165 92.586 24.3165C93.2649 24.3165 93.8306 23.779 93.8306 23.0719V15.8589C93.8306 12.8323 95.4429 11.022 98.1018 11.022C98.7524 11.022 99.2898 10.4845 99.2898 9.83396C99.3181 9.18338 98.7806 8.64595 98.1018 8.64595Z" fill="#1C0D3F"/>
<path fill-rule="evenodd" clip-rule="evenodd" d="M112.047 10.9936C113.122 12.5211 113.235 14.3597 113.235 15.0668C113.235 15.972 113.235 17.3297 111.736 17.358H102.543C102.628 20.3564 104.41 22.195 107.21 22.195C108.992 22.195 110.039 21.5161 110.944 20.8372C111.142 20.6958 111.34 20.6109 111.651 20.6109C112.273 20.6109 112.782 21.1201 112.782 21.7424C112.782 22.1667 112.556 22.4212 112.358 22.6193C112.047 22.9304 110.321 24.4861 107.182 24.4861C102.514 24.4861 100.025 21.7141 100.025 16.5094C100.025 11.4745 102.514 8.58932 106.87 8.58932C109.218 8.58932 110.944 9.40962 112.047 10.9936ZM110.802 15.1234C110.746 12.2948 109.416 10.8522 106.87 10.8522C104.325 10.8522 102.797 12.3797 102.571 15.1234H110.802Z" fill="#1C0D3F"/>
<path d="M121.551 15.2649C119.712 14.6426 118.128 14.0769 118.128 12.7191C118.128 11.22 119.797 10.9937 120.787 10.9937C122.569 10.9937 123.446 11.616 124.153 12.2948C124.38 12.5211 124.662 12.6343 124.974 12.6343C125.596 12.6343 126.105 12.1251 126.105 11.5028C126.105 11.1634 125.964 10.9371 125.85 10.7674C124.804 9.38136 123.022 8.61764 120.787 8.61764C117.619 8.61764 115.667 10.2017 115.667 12.7191C115.667 15.8023 118.383 16.7358 120.759 17.5278L120.86 17.5624C122.627 18.1693 124.125 18.684 124.125 19.9887C124.125 21.799 122.117 22.0818 120.9 22.0818C119.26 22.0818 117.987 21.5727 116.94 20.5544C116.629 20.2432 116.29 20.1867 116.092 20.1867C115.469 20.1867 114.96 20.6958 114.96 21.3181C114.96 21.5727 115.045 21.7707 115.243 22.0536C116.177 23.2416 118.298 24.4579 120.9 24.4579C124.464 24.4579 126.586 22.789 126.586 20.0169C126.586 17.0186 123.927 16.0852 121.551 15.2649Z" fill="#1C0D3F"/>
<path d="M162.962 8.78738C162.424 8.78738 162 9.09853 161.802 9.60768L158.266 19.6775L155.381 9.60768C155.268 9.21167 154.844 8.78738 154.222 8.78738C153.599 8.78738 153.175 9.21167 153.062 9.60768L150.177 19.6493L146.641 9.57939C146.443 9.07024 146.019 8.78738 145.481 8.78738C144.802 8.78738 144.236 9.32482 144.236 10.032C144.236 10.2017 144.265 10.3714 144.35 10.5411L149.073 23.5245C149.271 24.0336 149.696 24.3165 150.233 24.3165C150.799 24.3165 151.28 23.9488 151.421 23.4396L154.193 13.9072L156.965 23.4396C157.107 23.9488 157.616 24.3165 158.153 24.3165C158.691 24.3165 159.115 24.0053 159.313 23.4962L164.037 10.5128C164.122 10.3431 164.15 10.1451 164.15 9.97539C164.178 9.32481 163.641 8.78738 162.962 8.78738Z" fill="#1C0D3F"/>
<path fill-rule="evenodd" clip-rule="evenodd" d="M164.999 16.5094C164.999 11.4179 167.459 8.58932 171.957 8.58932C176.426 8.58932 178.915 11.3897 178.915 16.5094C178.915 21.6575 176.454 24.4861 171.957 24.4861C167.459 24.4861 164.999 21.6575 164.999 16.5094ZM167.488 16.5377C167.488 20.3564 168.959 22.2232 171.957 22.2232C174.955 22.2232 176.426 20.3564 176.426 16.5377C176.426 12.7757 174.927 10.8805 171.957 10.8805C168.987 10.8805 167.488 12.7757 167.488 16.5377Z" fill="#1C0D3F"/>
<path d="M188.476 8.64595C186.637 8.64595 185.082 9.40968 184.205 10.6543V10.0037C184.205 9.32481 183.667 8.75909 182.96 8.75909C182.281 8.75909 181.716 9.29653 181.716 10.0037V23.0719C181.716 23.7508 182.253 24.3165 182.96 24.3165C183.639 24.3165 184.205 23.779 184.205 23.0719V15.8589C184.205 12.8323 185.817 11.022 188.476 11.022C189.127 11.022 189.664 10.4845 189.664 9.83396C189.664 9.18338 189.127 8.64595 188.476 8.64595Z" fill="#1C0D3F"/>
<path d="M202.987 10.9937L197.867 15.0952L203.439 22.3364C203.666 22.6193 203.694 22.9022 203.694 23.1002C203.694 23.8073 203.128 24.3448 202.449 24.3448C202.053 24.3448 201.714 24.1468 201.403 23.779L195.83 16.6226L194.105 18.0087V23.1002C194.105 23.8073 193.539 24.3448 192.86 24.3448C192.153 24.3448 191.616 23.779 191.616 23.1002V1.97042C191.616 1.26327 192.181 0.72583 192.86 0.72583C193.568 0.72583 194.105 1.29155 194.105 1.97042V15.0103L201.375 9.07024C201.686 8.78738 202.025 8.75909 202.223 8.75909C202.93 8.75909 203.468 9.32481 203.468 10.0037C203.468 10.23 203.411 10.6543 202.987 10.9937Z" fill="#1C0D3F"/>
<path d="M211.812 15.2649C209.974 14.6426 208.389 14.0769 208.389 12.7191C208.389 11.22 210.058 10.9937 211.048 10.9937C212.83 10.9937 213.707 11.616 214.414 12.2948C214.641 12.5211 214.924 12.6343 215.235 12.6343C215.857 12.6343 216.366 12.1251 216.366 11.5028C216.366 11.2009 216.233 10.9753 216.154 10.8416C216.136 10.8124 216.122 10.7876 216.112 10.7674C215.065 9.38136 213.283 8.61764 211.048 8.61764C207.88 8.61764 205.929 10.2017 205.929 12.7191C205.929 15.8023 208.644 16.7358 211.02 17.5278L211.121 17.5624C212.888 18.1693 214.386 18.684 214.386 19.9887C214.386 21.799 212.378 22.0818 211.162 22.0818C209.521 22.0818 208.248 21.5727 207.201 20.5544C206.89 20.2432 206.579 20.1867 206.353 20.1867C205.731 20.1867 205.221 20.6958 205.221 21.3181C205.221 21.5727 205.306 21.7707 205.504 22.0536C206.438 23.2416 208.559 24.4579 211.162 24.4579C214.726 24.4579 216.847 22.789 216.847 20.0169C216.847 17.0186 214.188 16.0852 211.812 15.2649Z" fill="#1C0D3F"/>
<path d="M61.6551 5.73253C53.6488 5.73253 47.1584 12.2229 47.1584 20.2292C47.1584 28.2355 53.6488 34.7258 61.6551 34.7258C69.6614 34.7258 76.1517 28.2355 76.1517 20.2292V9.40973C76.1517 7.37887 74.5054 5.73253 72.4745 5.73253H61.6551Z" fill="#1C0D3F"/>
</g>
<defs>
<clipPath id="clip0_1_1338">
<rect width="263.311" height="34" fill="white" transform="translate(0.158447 0.72583)"/>
</clipPath>
</defs>
</svg>
