<svg width="170" height="35" viewBox="0 0 170 35" fill="none" xmlns="http://www.w3.org/2000/svg">
<path d="M85.1583 10.3431C86.0069 9.26825 87.5343 8.58937 89.2315 8.58937C93.2764 8.58937 95.3413 10.5694 95.3979 14.5012V23.1002C95.3979 23.8073 94.8322 24.3448 94.1533 24.3448C93.4461 24.3448 92.9087 23.779 92.9087 23.1002V14.9255C92.9087 12.0403 91.8338 10.8523 89.2315 10.8523C86.5443 10.8523 85.1583 12.2949 85.1583 15.1518V23.1002C85.1583 23.8073 84.5926 24.3448 83.9137 24.3448C83.2066 24.3448 82.6691 23.779 82.6691 23.1002V1.97042C82.6691 1.26327 83.2348 0.72583 83.9137 0.72583C84.6209 0.72583 85.1583 1.29155 85.1583 1.97042V10.3431Z" fill="#1C0D3F"/>
<path d="M41.4845 1.60273C37.2133 1.60273 35.7141 4.57277 35.7141 7.34481V9.04198H34.809C34.1584 9.04198 33.6493 9.55113 33.6493 10.2017C33.6493 10.8523 34.1584 11.3614 34.809 11.3614H35.7141V23.0719C35.7141 23.7508 36.2516 24.3165 36.9587 24.3165C37.6376 24.3165 38.2033 23.7791 38.2033 23.0719V11.3614H40.9471C41.5977 11.3614 42.1068 10.8523 42.1068 10.2017C42.1068 9.55113 41.5977 9.04198 40.9471 9.04198H38.2033V7.34481C38.2033 5.78907 38.769 3.95047 41.5128 3.95047C42.1634 3.95047 42.6725 3.44132 42.6725 2.79074C42.6442 2.11187 42.1351 1.60273 41.4845 1.60273Z" fill="#1C0D3F"/>
<path d="M51.1018 8.64595C49.2632 8.64595 47.7074 9.40968 46.8306 10.6543V10.0037C46.8306 9.32481 46.2931 8.75909 45.586 8.75909C44.9071 8.75909 44.3414 9.29653 44.3414 10.0037V23.0719C44.3414 23.7508 44.8788 24.3165 45.586 24.3165C46.2649 24.3165 46.8306 23.779 46.8306 23.0719V15.8589C46.8306 12.8323 48.4429 11.022 51.1018 11.022C51.7524 11.022 52.2898 10.4845 52.2898 9.83396C52.3181 9.18338 51.7806 8.64595 51.1018 8.64595Z" fill="#1C0D3F"/>
<path fill-rule="evenodd" clip-rule="evenodd" d="M65.0469 10.9936C66.1217 12.5211 66.2349 14.3597 66.2349 15.0668C66.2349 15.972 66.2349 17.3297 64.7357 17.358H55.5427C55.6276 20.3564 57.4096 22.195 60.2099 22.195C61.992 22.195 63.0385 21.5161 63.9437 20.8372C64.1417 20.6958 64.3397 20.6109 64.6508 20.6109C65.2731 20.6109 65.7823 21.1201 65.7823 21.7424C65.7823 22.1667 65.556 22.4212 65.358 22.6193C65.0469 22.9304 63.3214 24.4861 60.1816 24.4861C55.5144 24.4861 53.0252 21.7141 53.0252 16.5094C53.0252 11.4745 55.5144 8.58932 59.8705 8.58932C62.2182 8.58932 63.9437 9.40962 65.0469 10.9936ZM63.8023 15.1234C63.7457 12.2948 62.4162 10.8522 59.8705 10.8522C57.3247 10.8522 55.7973 12.3797 55.571 15.1234H63.8023Z" fill="#1C0D3F"/>
<path d="M74.551 15.2649C72.7124 14.6426 71.1284 14.0769 71.1284 12.7191C71.1284 11.22 72.7973 10.9937 73.7873 10.9937C75.5693 10.9937 76.4462 11.616 77.1533 12.2948C77.3796 12.5211 77.6625 12.6343 77.9736 12.6343C78.5959 12.6343 79.1051 12.1251 79.1051 11.5028C79.1051 11.1634 78.9636 10.9371 78.8505 10.7674C77.8039 9.38136 76.0219 8.61764 73.7873 8.61764C70.6192 8.61764 68.6675 10.2017 68.6675 12.7191C68.6675 15.8023 71.383 16.7358 73.759 17.5278L73.8598 17.5624C75.6267 18.1693 77.125 18.684 77.125 19.9887C77.125 21.799 75.1167 22.0818 73.9004 22.0818C72.2598 22.0818 70.9869 21.5727 69.9404 20.5544C69.6292 20.2432 69.2898 20.1867 69.0918 20.1867C68.4695 20.1867 67.9603 20.6958 67.9603 21.3181C67.9603 21.5727 68.0452 21.7707 68.2432 22.0536C69.1766 23.2416 71.2981 24.4579 73.9004 24.4579C77.4645 24.4579 79.5859 22.789 79.5859 20.0169C79.5859 17.0186 76.927 16.0852 74.551 15.2649Z" fill="#1C0D3F"/>
<path d="M115.962 8.78738C115.424 8.78738 115 9.09853 114.802 9.60768L111.266 19.6775L108.381 9.60768C108.268 9.21167 107.844 8.78738 107.222 8.78738C106.599 8.78738 106.175 9.21167 106.062 9.60768L103.177 19.6493L99.6408 9.57939C99.4428 9.07024 99.0185 8.78738 98.4811 8.78738C97.8022 8.78738 97.2365 9.32482 97.2365 10.032C97.2365 10.2017 97.2648 10.3714 97.3496 10.5411L102.073 23.5245C102.271 24.0336 102.696 24.3165 103.233 24.3165C103.799 24.3165 104.28 23.9488 104.421 23.4396L107.193 13.9072L109.965 23.4396C110.107 23.9488 110.616 24.3165 111.153 24.3165C111.691 24.3165 112.115 24.0053 112.313 23.4962L117.037 10.5128C117.122 10.3431 117.15 10.1451 117.15 9.97539C117.178 9.32481 116.641 8.78738 115.962 8.78738Z" fill="#1C0D3F"/>
<path fill-rule="evenodd" clip-rule="evenodd" d="M117.999 16.5094C117.999 11.4179 120.459 8.58932 124.957 8.58932C129.426 8.58932 131.915 11.3897 131.915 16.5094C131.915 21.6575 129.454 24.4861 124.957 24.4861C120.459 24.4861 117.999 21.6575 117.999 16.5094ZM120.488 16.5377C120.488 20.3564 121.959 22.2232 124.957 22.2232C127.955 22.2232 129.426 20.3564 129.426 16.5377C129.426 12.7757 127.927 10.8805 124.957 10.8805C121.987 10.8805 120.488 12.7757 120.488 16.5377Z" fill="#1C0D3F"/>
<path d="M141.476 8.64595C139.637 8.64595 138.082 9.40968 137.205 10.6543V10.0037C137.205 9.32481 136.667 8.75909 135.96 8.75909C135.281 8.75909 134.716 9.29653 134.716 10.0037V23.0719C134.716 23.7508 135.253 24.3165 135.96 24.3165C136.639 24.3165 137.205 23.779 137.205 23.0719V15.8589C137.205 12.8323 138.817 11.022 141.476 11.022C142.127 11.022 142.664 10.4845 142.664 9.83396C142.664 9.18338 142.127 8.64595 141.476 8.64595Z" fill="#1C0D3F"/>
<path d="M155.987 10.9937L150.867 15.0952L156.439 22.3364C156.666 22.6193 156.694 22.9022 156.694 23.1002C156.694 23.8073 156.128 24.3448 155.449 24.3448C155.053 24.3448 154.714 24.1468 154.403 23.779L148.83 16.6226L147.105 18.0087V23.1002C147.105 23.8073 146.539 24.3448 145.86 24.3448C145.153 24.3448 144.616 23.779 144.616 23.1002V1.97042C144.616 1.26327 145.181 0.72583 145.86 0.72583C146.568 0.72583 147.105 1.29155 147.105 1.97042V15.0103L154.375 9.07024C154.686 8.78738 155.025 8.75909 155.223 8.75909C155.93 8.75909 156.468 9.32481 156.468 10.0037C156.468 10.23 156.411 10.6543 155.987 10.9937Z" fill="#1C0D3F"/>
<path d="M164.812 15.2649C162.974 14.6426 161.389 14.0769 161.389 12.7191C161.389 11.22 163.058 10.9937 164.048 10.9937C165.83 10.9937 166.707 11.616 167.414 12.2948C167.641 12.5211 167.924 12.6343 168.235 12.6343C168.857 12.6343 169.366 12.1251 169.366 11.5028C169.366 11.2009 169.233 10.9753 169.154 10.8416C169.136 10.8124 169.122 10.7876 169.112 10.7674C168.065 9.38136 166.283 8.61764 164.048 8.61764C160.88 8.61764 158.929 10.2017 158.929 12.7191C158.929 15.8023 161.644 16.7358 164.02 17.5278L164.121 17.5624C165.888 18.1693 167.386 18.684 167.386 19.9887C167.386 21.799 165.378 22.0818 164.162 22.0818C162.521 22.0818 161.248 21.5727 160.201 20.5544C159.89 20.2432 159.579 20.1867 159.353 20.1867C158.731 20.1867 158.221 20.6958 158.221 21.3181C158.221 21.5727 158.306 21.7707 158.504 22.0536C159.438 23.2416 161.559 24.4579 164.162 24.4579C167.726 24.4579 169.847 22.789 169.847 20.0169C169.847 17.0186 167.188 16.0852 164.812 15.2649Z" fill="#1C0D3F"/>
<path d="M14.6551 5.73253C6.64882 5.73253 0.158447 12.2229 0.158447 20.2292C0.158447 28.2355 6.64882 34.7258 14.6551 34.7258C22.6614 34.7258 29.1517 28.2355 29.1517 20.2292V9.40973C29.1517 7.37887 27.5054 5.73253 25.4745 5.73253H14.6551Z" fill="#1C0D3F"/>
</svg>
