<svg width="87" height="29" viewBox="0 0 87 29" fill="none" xmlns="http://www.w3.org/2000/svg">
<mask id="mask0_1_1341" style="mask-type:alpha" maskUnits="userSpaceOnUse" x="0" y="0" width="87" height="29">
<path d="M43.2491 1.31709L37.4759 28.3047H30.4935L36.2691 1.31709H43.2491ZM72.6219 18.7423L76.2971 8.60909L78.4127 18.7423H72.6219ZM80.4123 28.3047H86.8695L81.2331 1.31709H75.2743C73.9339 1.31709 72.8039 2.09589 72.3023 3.29629L61.8267 28.3047H69.1559L70.6123 24.2727H79.5687L80.4123 28.3047ZM62.1895 19.4927C62.2207 12.3707 52.3407 11.9775 52.4087 8.79509C52.4303 7.82749 53.3519 6.79869 55.3699 6.53509C56.3687 6.40469 59.1275 6.30349 62.2527 7.74229L63.4795 2.01989C61.7983 1.40989 59.6379 0.823486 56.9475 0.823486C50.0475 0.823486 45.1899 4.49229 45.1511 9.74389C45.1051 13.6311 48.6175 15.7971 51.2639 17.0895C53.9827 18.4119 54.8947 19.2603 54.8847 20.4431C54.8643 22.2547 52.7151 23.0531 50.7059 23.0843C47.1959 23.1391 45.1587 22.1355 43.5355 21.3791L42.2715 27.2931C43.9011 28.0419 46.9123 28.6947 50.0351 28.7267C57.3699 28.7267 62.1667 25.1051 62.1895 19.4927ZM33.2731 1.31709L21.9615 28.3047H14.5819L9.01548 6.76669C8.67748 5.44069 8.38428 4.95389 7.35668 4.39629C5.67868 3.48469 2.90748 2.63029 0.469482 2.09949L0.633882 1.31709H12.5143C14.0275 1.31709 15.3899 2.32389 15.7335 4.06829L18.6735 19.6855L25.9399 1.31709H33.2731Z" fill="white"/>
</mask>
<g mask="url(#mask0_1_1341)">
<path fill-rule="evenodd" clip-rule="evenodd" d="M43.2491 1.31709L37.4759 28.3047H30.4935L36.2691 1.31709H43.2491ZM72.6219 18.7423L76.2971 8.60909L78.4127 18.7423H72.6219ZM80.4123 28.3047H86.8695L81.2331 1.31709H75.2743C73.9339 1.31709 72.8039 2.09589 72.3023 3.29629L61.8267 28.3047H69.1559L70.6123 24.2727H79.5687L80.4123 28.3047ZM62.1895 19.4927C62.2207 12.3707 52.3407 11.9775 52.4087 8.79509C52.4303 7.82749 53.3519 6.79869 55.3699 6.53509C56.3687 6.40469 59.1275 6.30349 62.2527 7.74229L63.4795 2.01989C61.7983 1.40989 59.6379 0.823486 56.9475 0.823486C50.0475 0.823486 45.1899 4.49229 45.1511 9.74389C45.1051 13.6311 48.6175 15.7971 51.2639 17.0895C53.9827 18.4119 54.8947 19.2603 54.8847 20.4431C54.8643 22.2547 52.7151 23.0531 50.7059 23.0843C47.1959 23.1391 45.1587 22.1355 43.5355 21.3791L42.2715 27.2931C43.9011 28.0419 46.9123 28.6947 50.0351 28.7267C57.3699 28.7267 62.1667 25.1051 62.1895 19.4927ZM33.2731 1.31709L21.9615 28.3047H14.5819L9.01548 6.76669C8.67748 5.44069 8.38428 4.95389 7.35668 4.39629C5.67868 3.48469 2.90748 2.63029 0.469482 2.09949L0.633882 1.31709H12.5143C14.0275 1.31709 15.3899 2.32389 15.7335 4.06829L18.6735 19.6855L25.9399 1.31709H33.2731Z" fill="#1C0D3F"/>
</g>
</svg>
