<svg width="264" height="29" viewBox="0 0 264 29" fill="none" xmlns="http://www.w3.org/2000/svg">
<g opacity="0.4" clip-path="url(#clip0_1_1340)">
<mask id="mask0_1_1340" style="mask-type:alpha" maskUnits="userSpaceOnUse" x="89" y="0" width="87" height="29">
<path d="M132.249 1.31709L126.476 28.3047H119.493L125.269 1.31709H132.249ZM161.622 18.7423L165.297 8.60909L167.413 18.7423H161.622ZM169.412 28.3047H175.869L170.233 1.31709H164.274C162.934 1.31709 161.804 2.09589 161.302 3.29629L150.827 28.3047H158.156L159.612 24.2727H168.569L169.412 28.3047ZM151.189 19.4927C151.221 12.3707 141.341 11.9775 141.409 8.79509C141.43 7.82749 142.352 6.79869 144.37 6.53509C145.369 6.40469 148.127 6.30349 151.253 7.74229L152.479 2.01989C150.798 1.40989 148.638 0.823486 145.947 0.823486C139.047 0.823486 134.19 4.49229 134.151 9.74389C134.105 13.6311 137.617 15.7971 140.264 17.0895C142.983 18.4119 143.895 19.2603 143.885 20.4431C143.864 22.2547 141.715 23.0531 139.706 23.0843C136.196 23.1391 134.159 22.1355 132.535 21.3791L131.271 27.2931C132.901 28.0419 135.912 28.6947 139.035 28.7267C146.37 28.7267 151.167 25.1051 151.189 19.4927ZM122.273 1.31709L110.961 28.3047H103.582L98.0155 6.76669C97.6775 5.44069 97.3843 4.95389 96.3567 4.39629C94.6787 3.48469 91.9075 2.63029 89.4695 2.09949L89.6339 1.31709H101.514C103.027 1.31709 104.39 2.32389 104.733 4.06829L107.673 19.6855L114.94 1.31709H122.273Z" fill="white"/>
</mask>
<g mask="url(#mask0_1_1340)">
<path fill-rule="evenodd" clip-rule="evenodd" d="M132.249 1.31709L126.476 28.3047H119.493L125.269 1.31709H132.249ZM161.622 18.7423L165.297 8.60909L167.413 18.7423H161.622ZM169.412 28.3047H175.869L170.233 1.31709H164.274C162.934 1.31709 161.804 2.09589 161.302 3.29629L150.827 28.3047H158.156L159.612 24.2727H168.569L169.412 28.3047ZM151.189 19.4927C151.221 12.3707 141.341 11.9775 141.409 8.79509C141.43 7.82749 142.352 6.79869 144.37 6.53509C145.369 6.40469 148.127 6.30349 151.253 7.74229L152.479 2.01989C150.798 1.40989 148.638 0.823486 145.947 0.823486C139.047 0.823486 134.19 4.49229 134.151 9.74389C134.105 13.6311 137.617 15.7971 140.264 17.0895C142.983 18.4119 143.895 19.2603 143.885 20.4431C143.864 22.2547 141.715 23.0531 139.706 23.0843C136.196 23.1391 134.159 22.1355 132.535 21.3791L131.271 27.2931C132.901 28.0419 135.912 28.6947 139.035 28.7267C146.37 28.7267 151.167 25.1051 151.189 19.4927ZM122.273 1.31709L110.961 28.3047H103.582L98.0155 6.76669C97.6775 5.44069 97.3843 4.95389 96.3567 4.39629C94.6787 3.48469 91.9075 2.63029 89.4695 2.09949L89.6339 1.31709H101.514C103.027 1.31709 104.39 2.32389 104.733 4.06829L107.673 19.6855L114.94 1.31709H122.273Z" fill="#1C0D3F"/>
</g>
</g>
<defs>
<clipPath id="clip0_1_1340">
<rect width="263.311" height="28" fill="white" transform="translate(0.469482 0.72583)"/>
</clipPath>
</defs>
</svg>
