<svg width="265" height="33" viewBox="0 0 265 33" fill="none" xmlns="http://www.w3.org/2000/svg">
<g opacity="0.4" clip-path="url(#clip0_1_1334)">
<path fill-rule="evenodd" clip-rule="evenodd" d="M106.124 27.3782H92.3936C91.936 27.3774 91.5895 27.0291 91.5887 26.5691V24.8847C91.5788 24.4712 91.7111 24.2875 91.9637 23.9725L102.893 11.2008H92.1844C91.7259 11.1999 91.3795 10.8517 91.3787 10.3916V9.19806C91.3795 8.738 91.7259 8.38974 92.1844 8.38891H106.054C106.513 8.38974 106.859 8.738 106.859 9.19806V10.9173C106.866 11.2286 106.758 11.4921 106.512 11.7689L95.556 24.5664H106.124C106.582 24.5672 106.928 24.9155 106.929 25.3755V26.5682C106.928 27.0291 106.582 27.3774 106.124 27.3782ZM133.19 27.7294H133.192C134.176 27.7094 134.903 27.5141 135.188 27.1929C135.289 27.079 135.336 26.9481 135.323 26.818C135.316 26.7108 135.316 26.7108 135.046 25.4399L135.04 25.41C134.982 25.078 134.745 24.9271 134.551 24.9271L134.524 24.9292C134.524 24.9292 134.277 24.9171 134.034 24.9171H134.032C133.33 24.8947 132.75 24.7924 132.738 23.7614V2.19005C132.737 1.83099 132.522 1.46112 132.108 1.45239L131.985 1.45322L130.068 1.94611C129.742 1.97977 129.402 2.21374 129.416 2.6472V23.8316C129.419 26.3409 130.76 27.7244 133.188 27.7294H133.19ZM171.945 27.3782H170.235C169.777 27.3774 169.431 27.0291 169.429 26.5691V13.5845C169.399 11.3882 168.745 10.7773 166.392 10.7449C163.731 10.7449 161.036 11.4148 160.148 11.6587V26.5682C160.147 27.037 159.824 27.3774 159.378 27.3782H157.632C157.173 27.3774 156.827 27.0291 156.827 26.5691V12.0057C156.802 10.6576 156.927 9.72543 158.835 9.10455C160.661 8.4712 164.156 7.93385 166.465 7.93177C170.866 7.93759 172.745 9.53385 172.75 13.2679V26.5682C172.749 27.0291 172.404 27.3774 171.945 27.3782ZM189.139 11.276C188.5 11.1127 186.718 10.7091 184.709 10.7091C181.022 10.7436 179.475 11.7502 179.436 17.9012C179.48 24.6565 181.48 25.0214 184.742 25.0572L184.745 25.1989V25.0572C186.774 25.0572 188.516 24.6316 189.137 24.4604L189.139 11.276ZM190.038 27.1255L189.834 27.1771C188.745 27.4547 187.255 27.8345 184.641 27.8345H184.635C177.433 27.8233 176.018 24.1716 176.011 17.8659C176.02 10.6347 178.3 7.94174 184.425 7.93177C186.586 7.93177 188.075 8.21312 189.144 8.47203L189.137 2.64803C189.128 2.39203 189.244 2.05707 189.844 1.94195L191.757 1.45239H191.862C192.301 1.4632 192.457 1.85676 192.459 2.19005V24.0776C192.488 25.4586 192.326 26.6447 190.038 27.1255ZM204.005 25.0223C199.284 25.0015 199.047 22.5653 199.015 17.9025C199.047 13.2126 199.284 10.7644 204.005 10.7449C208.727 10.7644 208.962 13.2126 208.995 17.8996C208.962 22.5653 208.726 25.0015 204.005 25.0223ZM204.005 7.93177C196.222 7.94257 195.563 13.0838 195.555 17.9012C195.563 22.7012 196.222 27.8233 204.005 27.8345C211.783 27.8233 212.445 22.7154 212.456 17.9004C212.449 12.8627 211.788 7.94257 204.005 7.93177ZM150.061 18.0026C149.281 18.0114 145.5 18.0729 143.995 18.3962L143.877 18.422C142.184 18.8026 140.848 19.1023 140.831 21.6215C140.834 24.7895 143.247 25.0738 145.717 25.0929L145.72 25.2346V25.0929C147.266 25.0929 148.726 24.8727 150.061 24.4363V18.0026ZM153.4 13.3743V23.4459C153.433 25.9494 152.793 26.7494 150.286 27.3346C149.187 27.5636 147.505 27.8345 145.682 27.8345C142.996 27.8283 137.407 27.8175 137.405 21.7603C137.388 16.9903 140.238 16.1612 143.684 15.6288C145.94 15.2652 148.236 15.2103 149.403 15.2103C149.718 15.2103 149.923 15.2132 150.044 15.2153V13.5139C150.033 12.3777 150.026 11.6895 148.97 11.288C148.318 11.0112 147.346 10.8845 145.9 10.8845C143.517 10.8845 141.382 11.421 139.97 11.7768L139.43 11.9039C139.372 11.9185 139.31 11.9334 139.229 11.9376H139.228C138.98 11.9376 138.706 11.7896 138.606 11.4597L138.598 11.4289L138.279 9.80855L138.278 9.7246C138.283 9.34268 138.558 9.11868 138.816 9.03639C139.954 8.61 142.964 7.93385 146.206 7.93177C148.575 7.93385 150.286 8.24304 151.437 8.87972C153.407 9.92657 153.402 11.8383 153.4 13.3743ZM122.124 24.4363C120.79 24.8727 119.33 25.0929 117.783 25.0929V25.2346L117.781 25.0929C115.311 25.0738 112.898 24.7895 112.895 21.6215C112.91 19.1023 114.248 18.8026 115.941 18.422L116.058 18.3962C117.564 18.0729 121.345 18.0114 122.124 18.0026V24.4363ZM123.5 8.87972C122.349 8.24304 120.638 7.93385 118.269 7.93177C115.027 7.93385 112.017 8.61 110.878 9.03639C110.621 9.11868 110.346 9.34268 110.342 9.7246V9.80855L110.661 11.4289L110.669 11.4597C110.769 11.7896 111.043 11.9376 111.292 11.9376H111.293C111.372 11.9334 111.436 11.9185 111.494 11.9039L112.032 11.7768C113.445 11.421 115.58 10.8845 117.963 10.8845C119.409 10.8845 120.38 11.0112 121.032 11.288C122.09 11.6895 122.097 12.3777 122.107 13.5139V15.2153C121.986 15.2132 121.782 15.2103 121.466 15.2103C120.299 15.2103 118.004 15.2652 115.746 15.6288C112.302 16.1612 109.451 16.9903 109.469 21.7603C109.47 27.8175 115.059 27.8283 117.745 27.8345C119.568 27.8345 121.25 27.5636 122.349 27.3346C124.855 26.7494 125.495 25.9494 125.463 23.4459V13.3743C125.466 11.8383 125.471 9.92657 123.5 8.87972Z" fill="#1C0D3F"/>
<path fill-rule="evenodd" clip-rule="evenodd" d="M59.2065 32.728C58.0427 32.728 57.3956 32.4542 57.0504 32.253C56.5721 31.9767 55.6894 31.2706 54.8981 29.1773C53.6296 25.826 52.8809 21.7333 52.8474 16.9234V16.9055C52.8809 12.0947 53.6296 8.00286 54.8981 4.65034C55.6894 2.55828 56.5721 1.85138 57.0504 1.57501C57.3956 1.37345 58.0418 1.10083 59.2057 1.10083C59.6497 1.10083 60.1694 1.14073 60.7759 1.2388C64.2984 1.81189 68.1987 3.20576 72.3591 5.58249L72.3748 5.59039C76.5018 8.02447 79.6534 10.7224 81.9083 13.5027C83.3148 15.2378 83.4814 16.3594 83.4814 16.9146C83.4814 17.4686 83.3148 18.5911 81.9083 20.3253C79.6534 23.1056 76.5018 25.8044 72.3748 28.2385L72.3591 28.2476C68.1987 30.6231 64.2984 32.017 60.7759 32.5901C60.1694 32.6886 59.6505 32.728 59.2065 32.728Z" fill="#1C0D3F"/>
</g>
<defs>
<clipPath id="clip0_1_1334">
<rect width="263.311" height="32" fill="white" transform="translate(0.847412 0.72583)"/>
</clipPath>
</defs>
</svg>
