<svg width="161" height="32" viewBox="0 0 161 32" fill="none" xmlns="http://www.w3.org/2000/svg">
<path fill-rule="evenodd" clip-rule="evenodd" d="M54.1239 26.3782H40.3936C39.936 26.3774 39.5895 26.0291 39.5887 25.5691V23.8847C39.5788 23.4712 39.7111 23.2875 39.9637 22.9725L50.8929 10.2008H40.1844C39.7259 10.1999 39.3795 9.85167 39.3787 9.39161V8.19806C39.3795 7.738 39.7259 7.38974 40.1844 7.38891H54.054C54.5125 7.38974 54.859 7.738 54.859 8.19806V9.91733C54.866 10.2286 54.7581 10.4921 54.5117 10.7689L43.556 23.5664H54.1239C54.5816 23.5672 54.928 23.9155 54.9288 24.3755V25.5682C54.928 26.0291 54.5816 26.3774 54.1239 26.3782ZM81.1903 26.7294H81.1916C82.176 26.7094 82.9028 26.5141 83.1881 26.1929C83.2885 26.079 83.3357 25.9481 83.3228 25.818C83.3162 25.7108 83.3162 25.7108 83.0458 24.4399L83.04 24.41C82.9817 24.078 82.7449 23.9271 82.5505 23.9271L82.5241 23.9292C82.5241 23.9292 82.2773 23.9171 82.0337 23.9171H82.0317C81.3305 23.8947 80.7496 23.7924 80.7376 22.7614V1.19005C80.7368 0.83099 80.5218 0.46112 80.1075 0.452393L79.9852 0.453224L78.0685 0.946107C77.7419 0.979769 77.4016 1.21374 77.4165 1.6472V22.8316C77.4194 25.3409 78.7602 26.7244 81.1883 26.7294H81.1903ZM119.945 26.3782H118.235C117.777 26.3774 117.431 26.0291 117.429 25.5691V12.5845C117.399 10.3882 116.745 9.77728 114.392 9.74486C111.731 9.74486 109.036 10.4148 108.148 10.6587V25.5682C108.147 26.037 107.824 26.3774 107.378 26.3782H105.632C105.173 26.3774 104.827 26.0291 104.827 25.5691V11.0057C104.802 9.65759 104.927 8.72543 106.835 8.10455C108.661 7.4712 112.156 6.93385 114.465 6.93177C118.866 6.93759 120.745 8.53385 120.75 12.2679V25.5682C120.749 26.0291 120.404 26.3774 119.945 26.3782ZM137.139 10.276C136.5 10.1127 134.718 9.70912 132.709 9.70912C129.022 9.74361 127.475 10.7502 127.436 16.9012C127.48 23.6565 129.48 24.0214 132.742 24.0572L132.745 24.1989V24.0572C134.774 24.0572 136.516 23.6316 137.137 23.4604L137.139 10.276ZM138.038 26.1255L137.834 26.1771C136.745 26.4547 135.255 26.8345 132.641 26.8345H132.635C125.433 26.8233 124.018 23.1716 124.011 16.8659C124.02 9.63473 126.3 6.94174 132.425 6.93177C134.586 6.93177 136.075 7.21312 137.144 7.47203L137.137 1.64803C137.128 1.39203 137.244 1.05707 137.844 0.941951L139.757 0.452393H139.862C140.301 0.463198 140.457 0.856756 140.459 1.19005V23.0776C140.488 24.4586 140.326 25.6447 138.038 26.1255ZM152.005 24.0223C147.284 24.0015 147.047 21.5653 147.015 16.9025C147.047 12.2126 147.284 9.76439 152.005 9.74486C156.727 9.76439 156.962 12.2126 156.995 16.8996C156.962 21.5653 156.726 24.0015 152.005 24.0223ZM152.005 6.93177C144.222 6.94257 143.563 12.0838 143.555 16.9012C143.563 21.7012 144.222 26.8233 152.005 26.8345C159.783 26.8233 160.445 21.7154 160.456 16.9004C160.449 11.8627 159.788 6.94257 152.005 6.93177ZM98.0606 17.0026C97.2813 17.0114 93.5004 17.0729 91.9955 17.3962L91.8768 17.422C90.1842 17.8026 88.8476 18.1023 88.8311 20.6215C88.8339 23.7895 91.2468 24.0738 93.7175 24.0929L93.7195 24.2346V24.0929C95.2662 24.0929 96.726 23.8727 98.0606 23.4363V17.0026ZM101.4 12.3743V22.4459C101.433 24.9494 100.793 25.7494 98.2855 26.3346C97.1874 26.5636 95.5047 26.8345 93.6819 26.8345C90.9962 26.8283 85.4074 26.8175 85.4052 20.7603C85.3875 15.9903 88.2382 15.1612 91.6838 14.6288C93.9403 14.2652 96.2357 14.2103 97.4028 14.2103C97.7183 14.2103 97.9225 14.2132 98.0437 14.2153V12.5139C98.0329 11.3777 98.0259 10.6895 96.9696 10.288C96.3176 10.0112 95.346 9.8845 93.9002 9.8845C91.5167 9.8845 89.3822 10.421 87.9699 10.7768L87.4303 10.9039C87.372 10.9185 87.31 10.9334 87.229 10.9376H87.2282C86.9797 10.9376 86.7064 10.7896 86.6055 10.4597L86.5977 10.4289L86.2793 8.80855L86.2781 8.7246C86.283 8.34268 86.5584 8.11868 86.816 8.03639C87.9542 7.61 90.9636 6.93385 94.2057 6.93177C96.5751 6.93385 98.2855 7.24304 99.4365 7.87972C101.407 8.92657 101.402 10.8383 101.4 12.3743ZM70.1243 23.4363C68.7897 23.8727 67.3299 24.0929 65.7832 24.0929V24.2346L65.7811 24.0929C63.3113 24.0738 60.8976 23.7895 60.8947 20.6215C60.9104 18.1023 62.2479 17.8026 63.9405 17.422L64.0579 17.3962C65.5641 17.0729 69.345 17.0114 70.1243 17.0026V23.4363ZM71.5002 7.87972C70.3492 7.24304 68.6376 6.93385 66.2686 6.93177C63.0272 6.93385 60.0166 7.61 58.8784 8.03639C58.6208 8.11868 58.3459 8.34268 58.3418 8.7246V8.80855L58.6613 10.4289L58.6692 10.4597C58.7688 10.7896 59.0434 10.9376 59.2918 10.9376H59.2927C59.3725 10.9334 59.4357 10.9185 59.494 10.9039L60.0323 10.7768C61.445 10.421 63.5796 9.8845 65.9626 9.8845C67.4088 9.8845 68.3804 10.0112 69.0324 10.288C70.0896 10.6895 70.0966 11.3777 70.1073 12.5139V14.2153C69.9862 14.2132 69.782 14.2103 69.4661 14.2103C68.2994 14.2103 66.004 14.2652 63.7462 14.6288C60.3019 15.1612 57.4512 15.9903 57.4689 20.7603C57.4698 26.8175 63.0587 26.8283 65.7448 26.8345C67.5684 26.8345 69.2503 26.5636 70.3492 26.3346C72.8554 25.7494 73.4954 24.9494 73.4632 22.4459V12.3743C73.4661 10.8383 73.4711 8.92657 71.5002 7.87972Z" fill="#1C0D3F"/>
<path fill-rule="evenodd" clip-rule="evenodd" d="M7.20648 31.728C6.04266 31.728 5.39563 31.4542 5.05041 31.253C4.57206 30.9767 3.68938 30.2706 2.89806 28.1773C1.62963 24.826 0.8809 20.7333 0.847412 15.9234V15.9055C0.8809 11.0947 1.62963 7.00286 2.89806 3.65034C3.68938 1.55828 4.57206 0.851376 5.05041 0.575012C5.39563 0.373453 6.04183 0.10083 7.20565 0.10083C7.64968 0.10083 8.16937 0.140726 8.77589 0.238804C12.2984 0.811895 16.1987 2.20576 20.3591 4.58249L20.3748 4.59039C24.5018 7.02447 27.6534 9.72244 29.9083 12.5027C31.3148 14.2378 31.4814 15.3594 31.4814 15.9146C31.4814 16.4686 31.3148 17.5911 29.9083 19.3253C27.6534 22.1056 24.5018 24.8044 20.3748 27.2385L20.3591 27.2476C16.1987 29.6231 12.2984 31.017 8.77589 31.5901C8.16937 31.6886 7.65051 31.728 7.20648 31.728Z" fill="#1C0D3F"/>
</svg>
