<svg width="25" height="26" viewBox="0 0 25 26" fill="none" xmlns="http://www.w3.org/2000/svg">
<g clip-path="url(#clip0_434_93)">
<circle cx="12.125" cy="14" r="12" fill="#20CA8B"/>
<path d="M9.69395 18.1879C9.65879 18.1879 9.62363 18.1826 9.58848 18.1721C9.55684 18.158 9.52871 18.1369 9.5041 18.1088L6.8041 15.4088C6.75137 15.3561 6.725 15.2928 6.725 15.2189C6.725 15.1451 6.75137 15.0818 6.8041 15.0291C6.85684 14.9764 6.92012 14.95 6.99394 14.95C7.06777 14.95 7.13105 14.9764 7.18379 15.0291L9.69395 17.5393L17.0662 10.167C17.1189 10.1143 17.1822 10.0879 17.2561 10.0879C17.3299 10.0879 17.3932 10.1143 17.4459 10.167C17.4986 10.2197 17.525 10.2848 17.525 10.3621C17.525 10.4359 17.4986 10.4992 17.4459 10.552L9.88379 18.1088C9.85918 18.1369 9.8293 18.158 9.79414 18.1721C9.7625 18.1826 9.7291 18.1879 9.69395 18.1879Z" fill="white"/>
<path d="M9.58848 18.1721L9.36002 18.6861L9.39265 18.7006L9.42684 18.7108L9.58848 18.1721ZM9.5041 18.1088L9.92743 17.7384L9.91509 17.7243L9.90185 17.711L9.5041 18.1088ZM9.69394 17.5393L9.2962 17.937L9.69394 18.3348L10.0917 17.937L9.69394 17.5393ZM17.4459 10.552L17.8435 10.9498L17.8436 10.9497L17.4459 10.552ZM9.88379 18.1088L9.48618 17.7109L9.47286 17.7242L9.46046 17.7384L9.88379 18.1088ZM9.79414 18.1721L9.97202 18.7057L9.9877 18.7005L10.003 18.6943L9.79414 18.1721ZM9.69394 17.6254C9.7159 17.6254 9.73515 17.6288 9.75011 17.6333L9.42684 18.7108C9.51212 18.7364 9.60167 18.7504 9.69394 18.7504V17.6254ZM9.81693 17.6581C9.86569 17.6797 9.9026 17.71 9.92743 17.7384L9.08078 18.4792C9.15482 18.5638 9.24799 18.6363 9.36002 18.6861L9.81693 17.6581ZM9.90185 17.711L7.20185 15.011L6.40635 15.8065L9.10635 18.5065L9.90185 17.711ZM7.20185 15.011C7.22284 15.032 7.24653 15.0635 7.26401 15.1054C7.28152 15.1475 7.2875 15.1874 7.2875 15.2189H6.1625C6.1625 15.4437 6.24933 15.6495 6.40635 15.8065L7.20185 15.011ZM7.2875 15.2189C7.2875 15.2505 7.28152 15.2904 7.26401 15.3325C7.24653 15.3744 7.22284 15.4059 7.20185 15.4268L6.40635 14.6314C6.24933 14.7884 6.1625 14.9942 6.1625 15.2189H7.2875ZM7.20185 15.4268C7.18086 15.4478 7.14939 15.4715 7.10746 15.489C7.06541 15.5065 7.02553 15.5125 6.99394 15.5125V14.3875C6.76924 14.3875 6.56337 14.4743 6.40635 14.6314L7.20185 15.4268ZM6.99394 15.5125C6.96236 15.5125 6.92247 15.5065 6.88043 15.489C6.8385 15.4715 6.80703 15.4478 6.78604 15.4268L7.58154 14.6314C7.42452 14.4743 7.21865 14.3875 6.99394 14.3875V15.5125ZM6.78604 15.4268L9.2962 17.937L10.0917 17.1415L7.58154 14.6314L6.78604 15.4268ZM10.0917 17.937L17.464 10.5647L16.6685 9.76924L9.2962 17.1415L10.0917 17.937ZM17.464 10.5647C17.443 10.5857 17.4115 10.6094 17.3696 10.6269C17.3275 10.6444 17.2876 10.6504 17.2561 10.6504V9.52539C17.0313 9.52539 16.8255 9.61222 16.6685 9.76924L17.464 10.5647ZM17.2561 10.6504C17.2245 10.6504 17.1846 10.6444 17.1425 10.6269C17.1006 10.6094 17.0691 10.5857 17.0482 10.5647L17.8436 9.76924C17.6866 9.61222 17.4808 9.52539 17.2561 9.52539V10.6504ZM17.0482 10.5647C17.0247 10.5412 17.0008 10.5082 16.9839 10.4667C16.9672 10.4255 16.9625 10.3885 16.9625 10.3621H18.0875C18.0875 10.1418 18.0062 9.93176 17.8436 9.76924L17.0482 10.5647ZM16.9625 10.3621C16.9625 10.3305 16.9685 10.2906 16.986 10.2486C17.0035 10.2067 17.0272 10.1752 17.0482 10.1542L17.8436 10.9497C18.0007 10.7927 18.0875 10.5868 18.0875 10.3621H16.9625ZM17.0483 10.1541L9.48618 17.7109L10.2814 18.5067L17.8435 10.9498L17.0483 10.1541ZM9.46046 17.7384C9.49513 17.6988 9.53906 17.6683 9.58523 17.6498L10.003 18.6943C10.1195 18.6477 10.2232 18.5751 10.3071 18.4792L9.46046 17.7384ZM9.61626 17.6384C9.64502 17.6289 9.67193 17.6254 9.69394 17.6254V18.7504C9.78627 18.7504 9.87998 18.7364 9.97202 18.7057L9.61626 17.6384Z" fill="white"/>
</g>
<defs>
<clipPath id="clip0_434_93">
<rect width="24" height="24" fill="white" transform="translate(0.125 2)"/>
</clipPath>
</defs>
</svg>
