<svg width="40" height="40" viewBox="0 0 40 40" fill="none" xmlns="http://www.w3.org/2000/svg">
<path d="M21.4062 21.0078L32.7148 9.69922C32.9102 9.50391 33.0078 9.26953 33.0078 8.99609C33.0078 8.72266 32.9102 8.48828 32.7148 8.29297C32.5195 8.09766 32.2786 8 31.9922 8C31.7188 8 31.4844 8.09766 31.2891 8.29297L20 19.582L8.71094 8.29297C8.51562 8.09766 8.27474 8 7.98828 8C7.71484 8 7.48047 8.09766 7.28516 8.29297C7.08984 8.48828 6.99219 8.72266 6.99219 8.99609C6.99219 9.26953 7.08984 9.50391 7.28516 9.69922L18.5938 21.0078L7.28516 32.2969C7.08984 32.4922 6.99219 32.7266 6.99219 33C6.99219 33.2734 7.08984 33.5078 7.28516 33.7031C7.38932 33.8073 7.5 33.8854 7.61719 33.9375C7.7474 33.9766 7.8776 33.9961 8.00781 33.9961C8.125 33.9961 8.24219 33.9766 8.35938 33.9375C8.48958 33.8854 8.60677 33.8073 8.71094 33.7031L20 22.4141L31.2891 33.7031C31.3932 33.8073 31.5039 33.8854 31.6211 33.9375C31.7513 33.9766 31.875 33.9961 31.9922 33.9961C32.1224 33.9961 32.2461 33.9766 32.3633 33.9375C32.4935 33.8854 32.6107 33.8073 32.7148 33.7031C32.9102 33.5078 33.0078 33.2734 33.0078 33C33.0078 32.7266 32.9102 32.4922 32.7148 32.2969L21.4062 21.0078Z" fill="#1C0D3F"/>
</svg>
