<svg width="183" height="40" viewBox="0 0 183 40" fill="none" xmlns="http://www.w3.org/2000/svg">
<path d="M35.3287 25.0974C35.2147 20.1201 32.5284 16.1694 28.4273 14.6252V5.9625C27.3917 5.28544 26.2897 4.72568 25.1393 4.29533V22.9319C25.1393 26.6238 23.4648 28.2724 20.7738 28.2724C18.154 28.2724 15.9625 26.2485 15.9625 22.864C15.9625 19.0863 18.8412 16.7793 22.6106 16.7793C22.9597 16.7728 23.3152 16.7914 23.6643 16.8473V13.5493C23.3152 13.4878 22.966 13.4571 22.6106 13.4636C17.0163 13.4636 12.6326 16.971 12.6326 22.8712C12.6326 28.5442 16.5888 31.5711 20.997 31.5711C23.0864 31.5711 24.8931 30.8447 26.14 29.5957C27.3862 28.3468 28.4408 26.5437 28.4408 23.3752V18.2127C30.717 19.3759 32.0898 22.1934 32.0961 25.4177C32.0843 31.4902 26.5739 36.622 20.1127 36.622C19.9623 36.622 19.8475 36.622 19.697 36.6155C15.265 36.6098 11.369 34.9726 8.21318 31.7426C5.94254 29.417 4.38919 26.4572 3.76294 23.2393C3.13669 20.015 3.45575 16.6806 4.69004 13.6407C5.91879 10.6073 8.0018 8.01068 10.6754 6.18334C13.3491 4.356 16.493 3.38369 19.7081 3.38369V0C17.1366 0 14.5897 0.516894 12.2169 1.51995C9.84412 2.523 7.68273 3.99927 5.86416 5.85168C2.19059 9.59857 0.125 14.6866 0.125 19.9907C0.125 25.2939 2.18426 30.3828 5.85149 34.1362C9.51873 37.8895 14.4986 40 19.6899 40H20.1056C21.7017 40 23.2914 39.7476 24.821 39.2615C24.8274 39.2615 24.8329 39.255 24.8393 39.255C27.0489 38.5537 29.0726 37.3597 30.7708 35.7605C33.7033 32.9916 35.3176 29.3312 35.3295 25.4363C35.3351 25.4234 35.3287 25.1038 35.3287 25.0974Z" fill="#1C0D3F"/>
<path d="M40.5674 19.6372C40.5674 14.0565 44.5909 9.56463 50.2398 9.12862C50.5327 9.10112 50.8257 9.10112 51.1455 9.10112C51.4385 9.10112 51.7583 9.10112 52.0251 9.12862C55.9417 9.42792 58.5267 11.633 59.5124 12.9669L56.9013 15.1178C55.7288 13.5388 53.8904 12.3408 51.1463 12.3141C47.0967 12.3141 44.2718 15.4721 44.2718 19.6097C44.2718 23.7748 47.0959 26.987 51.1463 26.987C53.3315 26.9595 55.0368 26.3334 56.2085 25.4355V21.8965H51.0125V18.7927H59.6984V27.0412C58.073 28.5927 55.2221 30.1992 51.1455 30.1992C44.9907 30.1725 40.5674 25.4905 40.5674 19.6372ZM116.604 29.7867V9.55978H123.505C125.956 9.55978 128.089 9.88658 130.007 11.1113C132.805 12.9079 134.536 16.0659 134.536 19.6599C134.536 23.2806 132.804 26.4386 130.007 28.2352C128.089 29.4599 125.957 29.7867 123.505 29.7867H116.604ZM120.255 26.5737H123.372C125.078 26.5737 126.516 26.4378 127.929 25.5116C129.714 24.3136 130.807 22.1085 130.807 19.6316C130.807 17.2089 129.714 15.0038 127.929 13.8058C126.516 12.8804 125.078 12.717 123.345 12.717H120.255V26.5737ZM61.7506 22.2775C61.7506 17.9215 65.1344 14.3825 69.7438 14.3825C74.407 14.3825 77.7639 17.9215 77.7639 22.2775C77.7639 26.6335 74.407 30.1992 69.7438 30.1992C65.1075 30.2 61.7506 26.661 61.7506 22.2775ZM136.268 22.3269C136.268 17.9709 139.172 14.4319 143.622 14.4319C146.02 14.4319 147.672 15.4665 148.578 16.6095H148.605L148.765 14.8671H152.096L152.123 29.8126H148.845L148.685 27.9343L148.632 27.9068C147.779 29.159 146.048 30.2478 143.676 30.2478C139.146 30.2494 136.268 26.6829 136.268 22.3269ZM74.1932 22.3325C74.1932 19.6372 72.4609 17.4863 69.7438 17.4863C67.0796 17.4863 65.2943 19.6372 65.2943 22.3325C65.2943 24.9461 67.0796 27.0695 69.7438 27.0695C72.4617 27.0695 74.1932 24.9461 74.1932 22.3325ZM148.657 22.3269C148.657 19.6591 146.952 17.5357 144.234 17.5357C141.623 17.5357 139.811 19.6591 139.811 22.3269C139.811 24.9947 141.623 27.1181 144.234 27.1181C146.953 27.1189 148.657 24.9947 148.657 22.3269ZM157.61 27.8809C156.864 26.8738 156.651 25.6758 156.651 24.0968V17.89H153.933V14.8679H156.651V9.28717C156.757 9.31467 156.837 9.34136 156.944 9.39637C157.476 9.61397 158.036 9.83156 158.542 10.1042C159.102 10.4035 159.635 10.7028 160.167 11.0296V14.8679H164.671V17.89H160.167V23.8792C160.167 24.8596 160.3 25.6216 160.7 26.1118C161.073 26.6287 161.686 26.9288 162.459 26.9288C163.338 26.9288 164.031 26.6295 164.43 26.3302L165.736 28.8896C165.096 29.4065 163.684 30.0601 161.979 30.0601C160.195 30.0585 158.543 29.4057 157.61 27.8809ZM79.4961 22.2775C79.4961 17.9215 82.853 14.3825 87.4893 14.3825C92.1256 14.3825 95.5094 17.9215 95.5094 22.2775C95.5094 26.6335 92.1256 30.1992 87.4893 30.1992C82.8261 30.2 79.4961 26.661 79.4961 22.2775ZM91.9388 22.3325C91.9388 19.6372 90.1804 17.4863 87.4893 17.4863C84.7983 17.4863 83.0399 19.6372 83.0399 22.3325C83.0399 24.9461 84.7983 27.0695 87.4893 27.0695C90.1804 27.0695 91.9388 24.9461 91.9388 22.3325ZM166.27 22.3269C166.27 17.9709 169.174 14.4319 173.624 14.4319C176.022 14.4319 177.674 15.4665 178.58 16.6095H178.607L178.767 14.8671H182.098L182.125 29.8126H178.847L178.687 27.9343L178.634 27.9068C177.782 29.159 176.05 30.2478 173.678 30.2478C169.148 30.2494 166.27 26.6829 166.27 22.3269ZM178.66 22.3269C178.66 19.6591 176.955 17.5357 174.237 17.5357C171.626 17.5357 169.814 19.6591 169.814 22.3269C169.814 24.9947 171.626 27.1181 174.237 27.1181C176.955 27.1189 178.66 24.9947 178.66 22.3269ZM102.037 29.764C99.0262 28.7019 97.2148 25.7348 97.2148 22.2775C97.2148 17.9215 100.119 14.3825 104.569 14.3825C106.967 14.3825 108.619 15.4171 109.525 16.5601H109.552V7.78906L110.058 7.97997C110.644 8.22507 111.204 8.47017 111.736 8.76947C112.189 9.01457 112.642 9.25967 113.069 9.55896V29.764H109.791L109.631 27.8857L109.578 27.8582C109.045 28.6202 108.193 29.328 107.073 29.764C106.354 30.0366 105.528 30.1992 104.622 30.1992C103.689 30.2 102.81 30.0366 102.037 29.764ZM109.604 22.2775C109.604 19.6097 107.899 17.4863 105.181 17.4863C102.57 17.4863 100.758 19.6097 100.758 22.2775C100.758 24.9453 102.57 27.0687 105.181 27.0687C107.899 27.0695 109.604 24.9461 109.604 22.2775Z" fill="#1C0D3F"/>
</svg>
