<svg width="32" height="23" viewBox="0 0 32 23" fill="none" xmlns="http://www.w3.org/2000/svg">
<path d="M31 2.50391H1C0.726562 2.50391 0.492188 2.40625 0.296875 2.21094C0.101562 2.01562 0.00390625 1.78125 0.00390625 1.50781C0.00390625 1.22135 0.101562 0.980469 0.296875 0.785156C0.492188 0.589844 0.726562 0.492188 1 0.492188H31C31.2734 0.492188 31.5078 0.589844 31.7031 0.785156C31.8984 0.980469 31.9961 1.22135 31.9961 1.50781C31.9961 1.78125 31.8984 2.01562 31.7031 2.21094C31.5078 2.40625 31.2734 2.50391 31 2.50391ZM31 12.5039H1C0.726562 12.5039 0.492188 12.4062 0.296875 12.2109C0.101562 12.0156 0.00390625 11.7812 0.00390625 11.5078C0.00390625 11.2214 0.101562 10.9805 0.296875 10.7852C0.492188 10.5898 0.726562 10.4922 1 10.4922H31C31.2734 10.4922 31.5078 10.5898 31.7031 10.7852C31.8984 10.9805 31.9961 11.2214 31.9961 11.5078C31.9961 11.7812 31.8984 12.0156 31.7031 12.2109C31.5078 12.4062 31.2734 12.5039 31 12.5039ZM31 22.5039H1C0.726562 22.5039 0.492188 22.4062 0.296875 22.2109C0.101562 22.0156 0.00390625 21.7812 0.00390625 21.5078C0.00390625 21.2214 0.101562 20.9805 0.296875 20.7852C0.492188 20.5898 0.726562 20.4922 1 20.4922H31C31.2734 20.4922 31.5078 20.5898 31.7031 20.7852C31.8984 20.9805 31.9961 21.2214 31.9961 21.5078C31.9961 21.7812 31.8984 22.0156 31.7031 22.2109C31.5078 22.4062 31.2734 22.5039 31 22.5039Z" fill="#1C0D3F"/>
</svg>
